<svg id="Layer_1" data-name="Layer 1" xmlns="http://www.w3.org/2000/svg" viewBox="0 0 580.59 147.88"><defs><style>.cls-1,.cls-5{fill:#c65c28;}.cls-1,.cls-10,.cls-11,.cls-13,.cls-17,.cls-3,.cls-7,.cls-8,.cls-9{stroke:#231f20;stroke-miterlimit:10;}.cls-2{font-size:16.27px;font-family:MyriadPro-Regular, Myriad Pro;}.cls-12,.cls-14,.cls-15,.cls-16,.cls-2{fill:#231f20;}.cls-3,.cls-6{fill:#bce2f8;}.cls-17,.cls-4{fill:#adafb2;}.cls-10,.cls-13,.cls-7,.cls-8,.cls-9{fill:none;}.cls-10,.cls-8,.cls-9{stroke-width:0.75px;}.cls-9{stroke-dasharray:2.05 1.02;}.cls-10{stroke-dasharray:2.03 1.01;}.cls-11{fill:#7ea35a;}.cls-12{font-size:8px;font-family:ArialMT, Arial;}.cls-13{stroke-width:1.5px;}.cls-15{font-size:9px;}.cls-15,.cls-16{font-family:Arial-BoldMT, Arial;font-weight:700;}.cls-16{font-size:10px;}</style></defs><title>figure</title><rect class="cls-1" x="432.88" y="91.24" width="38.52" height="9.63"/><line class="cls-1" x1="442.51" y1="91.24" x2="442.51" y2="100.87"/><line class="cls-1" x1="452.14" y1="91.24" x2="452.14" y2="100.87"/><line class="cls-1" x1="461.77" y1="91.24" x2="461.77" y2="100.87"/><text class="cls-2" transform="translate(448.77 90.41)">*</text><rect class="cls-3" x="432.88" y="10.17" width="38.52" height="62.1"/><line class="cls-3" x1="432.88" y1="61.92" x2="471.4" y2="61.92"/><line class="cls-3" x1="432.88" y1="51.57" x2="471.4" y2="51.57"/><line class="cls-3" x1="432.88" y1="41.22" x2="471.4" y2="41.22"/><line class="cls-3" x1="432.88" y1="30.87" x2="471.4" y2="30.87"/><line class="cls-3" x1="432.88" y1="20.52" x2="471.4" y2="20.52"/><line class="cls-3" x1="461.77" y1="10.17" x2="461.77" y2="72.27"/><line class="cls-3" x1="452.14" y1="10.17" x2="452.14" y2="72.27"/><line class="cls-3" x1="442.51" y1="10.17" x2="442.51" y2="72.27"/><rect class="cls-1" x="402.53" y="10.17" width="10.35" height="62.1"/><line class="cls-1" x1="402.53" y1="61.92" x2="412.88" y2="61.92"/><line class="cls-1" x1="402.53" y1="51.57" x2="412.88" y2="51.57"/><line class="cls-1" x1="402.53" y1="41.22" x2="412.88" y2="41.22"/><line class="cls-1" x1="402.53" y1="30.87" x2="412.88" y2="30.87"/><line class="cls-1" x1="402.53" y1="20.52" x2="412.88" y2="20.52"/><text class="cls-2" transform="translate(419.74 48.96)">*</text><rect class="cls-3" x="35.28" y="5.89" width="76.22" height="76.22"/><line class="cls-3" x1="35.28" y1="72.58" x2="111.51" y2="72.58"/><line class="cls-3" x1="35.28" y1="63.06" x2="111.51" y2="63.06"/><line class="cls-3" x1="35.28" y1="53.53" x2="111.51" y2="53.53"/><line class="cls-3" x1="35.28" y1="44" x2="111.51" y2="44"/><line class="cls-3" x1="35.28" y1="34.47" x2="111.51" y2="34.47"/><line class="cls-3" x1="35.28" y1="24.95" x2="111.51" y2="24.95"/><line class="cls-3" x1="35.28" y1="15.42" x2="111.51" y2="15.42"/><line class="cls-3" x1="101.98" y1="5.89" x2="101.98" y2="82.11"/><line class="cls-3" x1="92.45" y1="5.89" x2="92.45" y2="82.11"/><line class="cls-3" x1="82.92" y1="5.89" x2="82.92" y2="82.11"/><line class="cls-3" x1="73.39" y1="5.89" x2="73.39" y2="82.11"/><line class="cls-3" x1="63.87" y1="5.89" x2="63.87" y2="82.11"/><line class="cls-3" x1="54.34" y1="5.89" x2="54.34" y2="82.11"/><line class="cls-3" x1="44.81" y1="5.89" x2="44.81" y2="82.11"/><rect class="cls-1" x="35.28" y="92.31" width="76.22" height="9.53"/><line class="cls-1" x1="101.98" y1="92.31" x2="101.98" y2="101.83"/><line class="cls-1" x1="92.45" y1="92.31" x2="92.45" y2="101.83"/><line class="cls-1" x1="82.92" y1="92.31" x2="82.92" y2="101.83"/><line class="cls-1" x1="73.39" y1="92.31" x2="73.39" y2="101.83"/><line class="cls-1" x1="63.87" y1="92.31" x2="63.87" y2="101.83"/><line class="cls-1" x1="54.34" y1="92.31" x2="54.34" y2="101.83"/><line class="cls-1" x1="44.81" y1="92.31" x2="44.81" y2="101.83"/><rect class="cls-1" x="15.44" y="5.68" width="9.57" height="76.56"/><line class="cls-1" x1="25.01" y1="72.67" x2="15.44" y2="72.67"/><line class="cls-1" x1="25.01" y1="63.1" x2="15.44" y2="63.1"/><line class="cls-1" x1="25.01" y1="53.53" x2="15.44" y2="53.53"/><line class="cls-1" x1="25.01" y1="43.96" x2="15.44" y2="43.96"/><line class="cls-1" x1="25.01" y1="34.39" x2="15.44" y2="34.39"/><line class="cls-1" x1="25.01" y1="24.82" x2="15.44" y2="24.82"/><line class="cls-1" x1="25.01" y1="15.25" x2="15.44" y2="15.25"/><rect class="cls-4" x="223.49" y="92.31" width="9.52" height="9.52"/><rect class="cls-4" x="223.49" y="72.59" width="9.52" height="9.53"/><rect class="cls-4" x="223.49" y="63.05" width="9.52" height="9.53"/><rect class="cls-4" x="223.49" y="53.53" width="9.52" height="9.52"/><rect class="cls-4" x="223.49" y="44" width="9.52" height="9.53"/><rect class="cls-4" x="223.49" y="34.47" width="9.52" height="9.53"/><rect class="cls-4" x="223.49" y="24.95" width="9.52" height="9.52"/><rect class="cls-4" x="223.49" y="15.42" width="9.52" height="9.53"/><rect class="cls-4" x="223.49" y="5.89" width="9.52" height="9.52"/><rect class="cls-5" x="213.96" y="92.31" width="9.53" height="9.52"/><rect class="cls-4" x="213.96" y="72.59" width="9.53" height="9.53"/><rect class="cls-6" x="213.96" y="63.05" width="9.53" height="9.53"/><rect class="cls-6" x="213.96" y="53.53" width="9.53" height="9.52"/><rect class="cls-4" x="213.96" y="44" width="9.53" height="9.53"/><rect class="cls-6" x="213.96" y="34.47" width="9.53" height="9.53"/><rect class="cls-6" x="213.96" y="24.95" width="9.53" height="9.52"/><rect class="cls-6" x="213.96" y="15.42" width="9.53" height="9.53"/><rect class="cls-4" x="213.96" y="5.89" width="9.53" height="9.52"/><rect class="cls-5" x="204.43" y="92.31" width="9.52" height="9.52"/><rect class="cls-4" x="204.43" y="72.59" width="9.52" height="9.53"/><rect class="cls-6" x="204.43" y="63.05" width="9.52" height="9.53"/><rect class="cls-6" x="204.43" y="53.53" width="9.52" height="9.52"/><rect class="cls-4" x="204.43" y="44" width="9.52" height="9.53"/><rect class="cls-6" x="204.43" y="34.47" width="9.52" height="9.53"/><rect class="cls-6" x="204.43" y="24.95" width="9.52" height="9.52"/><rect class="cls-6" x="204.43" y="15.42" width="9.52" height="9.53"/><rect class="cls-4" x="204.43" y="5.89" width="9.52" height="9.52"/><rect class="cls-5" x="194.9" y="92.31" width="9.53" height="9.52"/><rect class="cls-4" x="194.9" y="72.59" width="9.53" height="9.53"/><rect class="cls-6" x="194.9" y="63.05" width="9.53" height="9.53"/><rect class="cls-6" x="194.9" y="53.53" width="9.53" height="9.52"/><rect class="cls-4" x="194.9" y="44" width="9.53" height="9.53"/><rect class="cls-6" x="194.9" y="34.47" width="9.53" height="9.53"/><rect class="cls-6" x="194.9" y="24.95" width="9.53" height="9.52"/><rect class="cls-6" x="194.9" y="15.42" width="9.53" height="9.53"/><rect class="cls-4" x="194.9" y="5.89" width="9.53" height="9.52"/><rect class="cls-5" x="185.37" y="92.31" width="9.53" height="9.52"/><rect class="cls-4" x="185.37" y="72.59" width="9.53" height="9.53"/><rect class="cls-6" x="185.37" y="63.05" width="9.53" height="9.53"/><rect class="cls-6" x="185.37" y="53.53" width="9.53" height="9.52"/><rect class="cls-4" x="185.37" y="44" width="9.53" height="9.53"/><rect class="cls-6" x="185.37" y="34.47" width="9.53" height="9.53"/><rect class="cls-6" x="185.37" y="24.95" width="9.53" height="9.52"/><rect class="cls-6" x="185.37" y="15.42" width="9.53" height="9.53"/><rect class="cls-4" x="185.37" y="5.89" width="9.53" height="9.52"/><rect class="cls-5" x="175.85" y="92.31" width="9.52" height="9.52"/><rect class="cls-4" x="175.85" y="72.59" width="9.52" height="9.53"/><rect class="cls-6" x="175.85" y="63.05" width="9.52" height="9.53"/><rect class="cls-6" x="175.85" y="53.53" width="9.52" height="9.52"/><rect class="cls-4" x="175.85" y="44" width="9.52" height="9.53"/><rect class="cls-6" x="175.85" y="34.47" width="9.52" height="9.53"/><rect class="cls-6" x="175.85" y="24.95" width="9.52" height="9.52"/><rect class="cls-6" x="175.85" y="15.42" width="9.52" height="9.53"/><rect class="cls-4" x="175.85" y="5.89" width="9.52" height="9.52"/><rect class="cls-4" x="166.32" y="92.31" width="9.53" height="9.52"/><rect class="cls-4" x="166.32" y="72.59" width="9.53" height="9.53"/><rect class="cls-4" x="166.32" y="63.05" width="9.53" height="9.53"/><rect class="cls-4" x="166.32" y="53.53" width="9.53" height="9.52"/><rect class="cls-4" x="166.32" y="44" width="9.53" height="9.53"/><rect class="cls-4" x="166.32" y="34.47" width="9.53" height="9.53"/><rect class="cls-4" x="166.32" y="24.95" width="9.53" height="9.52"/><rect class="cls-4" x="166.32" y="15.42" width="9.53" height="9.53"/><rect class="cls-4" x="166.32" y="5.89" width="9.53" height="9.52"/><rect class="cls-4" x="156.79" y="92.31" width="9.52" height="9.52"/><rect class="cls-4" x="156.79" y="72.59" width="9.52" height="9.53"/><rect class="cls-4" x="156.79" y="63.05" width="9.52" height="9.53"/><rect class="cls-4" x="156.79" y="53.53" width="9.52" height="9.52"/><rect class="cls-4" x="156.79" y="44" width="9.52" height="9.53"/><rect class="cls-4" x="156.79" y="34.47" width="9.52" height="9.53"/><rect class="cls-4" x="156.79" y="24.95" width="9.52" height="9.52"/><rect class="cls-4" x="156.79" y="15.42" width="9.52" height="9.53"/><rect class="cls-4" x="156.79" y="5.89" width="9.52" height="9.52"/><rect class="cls-4" x="136.94" y="72.67" width="9.57" height="9.57"/><rect class="cls-5" x="136.94" y="63.1" width="9.57" height="9.57"/><rect class="cls-5" x="136.94" y="53.53" width="9.57" height="9.57"/><rect class="cls-4" x="136.94" y="43.96" width="9.57" height="9.57"/><rect class="cls-5" x="136.94" y="34.39" width="9.57" height="9.57"/><rect class="cls-5" x="136.94" y="24.82" width="9.57" height="9.57"/><rect class="cls-5" x="136.94" y="15.25" width="9.57" height="9.57"/><rect class="cls-4" x="136.94" y="5.68" width="9.57" height="9.57"/><polygon class="cls-7" points="156.79 15.41 156.79 5.89 166.32 5.89 175.85 5.89 185.37 5.89 194.9 5.89 204.43 5.89 213.96 5.89 223.49 5.89 233.01 5.89 233.01 15.41 233.01 24.95 233.01 34.47 233.01 44 233.01 53.53 233.01 63.05 233.01 72.58 233.01 82.12 223.49 82.12 213.96 82.12 204.43 82.12 194.9 82.12 185.37 82.12 175.85 82.12 166.32 82.12 156.79 82.12 156.79 72.58 156.79 63.05 156.79 53.53 156.79 44 156.79 34.47 156.79 24.95 156.79 15.41"/><polyline class="cls-7" points="156.79 72.58 166.32 72.58 175.85 72.58 185.37 72.58 194.9 72.58 204.43 72.58 213.96 72.58 223.49 72.58 233.01 72.58"/><polyline class="cls-7" points="156.79 63.05 166.32 63.05 175.85 63.05 185.37 63.05 194.9 63.05 204.43 63.05 213.96 63.05 223.49 63.05 233.01 63.05"/><polyline class="cls-7" points="156.79 53.53 166.32 53.53 175.85 53.53 185.37 53.53 194.9 53.53 204.43 53.53 213.96 53.53 223.49 53.53 233.01 53.53"/><polyline class="cls-7" points="156.79 44 166.32 44 175.85 44 185.37 44 194.9 44 204.43 44 213.96 44 223.49 44 233.01 44"/><polyline class="cls-7" points="156.79 34.47 166.32 34.47 175.85 34.47 185.37 34.47 194.9 34.47 204.43 34.47 213.96 34.47 223.49 34.47 233.01 34.47"/><polyline class="cls-7" points="156.79 24.95 166.32 24.95 175.85 24.95 185.37 24.95 194.9 24.95 204.43 24.95 213.96 24.95 223.49 24.95 233.01 24.95"/><polyline class="cls-7" points="156.79 15.41 166.32 15.41 175.85 15.41 185.37 15.41 194.9 15.41 204.43 15.41 213.96 15.41 223.49 15.41 233.01 15.41"/><polyline class="cls-7" points="223.49 5.89 223.49 15.41 223.49 24.95 223.49 34.47 223.49 44 223.49 53.53 223.49 63.05 223.49 72.58 223.49 82.12"/><polyline class="cls-7" points="213.96 5.89 213.96 15.41 213.96 24.95 213.96 34.47 213.96 44 213.96 53.53 213.96 63.05 213.96 72.58 213.96 82.12"/><polyline class="cls-7" points="204.43 5.89 204.43 15.41 204.43 24.95 204.43 34.47 204.43 44 204.43 53.53 204.43 63.05 204.43 72.58 204.43 82.12"/><polyline class="cls-7" points="194.9 5.89 194.9 15.41 194.9 24.95 194.9 34.47 194.9 44 194.9 53.53 194.9 63.05 194.9 72.58 194.9 82.12"/><polyline class="cls-7" points="185.37 5.89 185.37 15.41 185.37 24.95 185.37 34.47 185.37 44 185.37 53.53 185.37 63.05 185.37 72.58 185.37 82.12"/><polyline class="cls-7" points="175.85 5.89 175.85 15.41 175.85 24.95 175.85 34.47 175.85 44 175.85 53.53 175.85 63.05 175.85 72.58 175.85 82.12"/><polyline class="cls-7" points="166.32 5.89 166.32 15.41 166.32 24.95 166.32 34.47 166.32 44 166.32 53.53 166.32 63.05 166.32 72.58 166.32 82.12"/><polygon class="cls-7" points="166.32 101.83 156.79 101.83 156.79 92.31 166.32 92.31 175.85 92.31 185.37 92.31 194.9 92.31 204.43 92.31 213.96 92.31 223.49 92.31 233.01 92.31 233.01 101.83 223.49 101.83 213.96 101.83 204.43 101.83 194.9 101.83 185.37 101.83 175.85 101.83 166.32 101.83"/><line class="cls-7" x1="223.49" y1="92.31" x2="223.49" y2="101.83"/><line class="cls-7" x1="213.96" y1="92.31" x2="213.96" y2="101.83"/><line class="cls-7" x1="204.43" y1="92.31" x2="204.43" y2="101.83"/><line class="cls-7" x1="194.9" y1="92.31" x2="194.9" y2="101.83"/><line class="cls-7" x1="185.37" y1="92.31" x2="185.37" y2="101.83"/><line class="cls-7" x1="175.85" y1="92.31" x2="175.85" y2="101.83"/><line class="cls-7" x1="166.32" y1="92.31" x2="166.32" y2="101.83"/><polygon class="cls-7" points="146.52 15.25 146.52 5.68 136.94 5.68 136.94 15.25 136.94 24.82 136.94 34.39 136.94 43.96 136.94 53.53 136.94 63.1 136.94 72.67 136.94 82.24 146.52 82.24 146.52 72.67 146.52 63.1 146.52 53.53 146.52 43.96 146.52 34.39 146.52 24.82 146.52 15.25"/><line class="cls-7" x1="146.52" y1="72.67" x2="136.94" y2="72.67"/><line class="cls-7" x1="146.52" y1="63.1" x2="136.94" y2="63.1"/><line class="cls-7" x1="146.52" y1="53.53" x2="136.94" y2="53.53"/><line class="cls-7" x1="146.52" y1="43.96" x2="136.94" y2="43.96"/><line class="cls-7" x1="146.52" y1="34.39" x2="136.94" y2="34.39"/><line class="cls-7" x1="146.52" y1="24.82" x2="136.94" y2="24.82"/><line class="cls-7" x1="146.52" y1="15.25" x2="136.94" y2="15.25"/><rect class="cls-4" x="350.56" y="92.31" width="9.52" height="9.52"/><rect class="cls-4" x="350.56" y="72.59" width="9.52" height="9.52"/><rect class="cls-4" x="350.56" y="63.06" width="9.52" height="9.53"/><rect class="cls-4" x="350.56" y="53.52" width="9.52" height="9.53"/><rect class="cls-4" x="350.56" y="44" width="9.52" height="9.52"/><rect class="cls-4" x="350.56" y="34.47" width="9.52" height="9.53"/><rect class="cls-4" x="350.56" y="24.95" width="9.52" height="9.52"/><rect class="cls-4" x="350.56" y="15.42" width="9.52" height="9.53"/><rect class="cls-4" x="350.56" y="5.89" width="9.52" height="9.53"/><rect class="cls-5" x="341.03" y="92.31" width="9.53" height="9.52"/><rect class="cls-4" x="341.03" y="72.59" width="9.53" height="9.52"/><rect class="cls-6" x="341.03" y="63.06" width="9.53" height="9.53"/><rect class="cls-6" x="341.03" y="53.52" width="9.53" height="9.53"/><rect class="cls-6" x="341.03" y="44" width="9.53" height="9.52"/><rect class="cls-6" x="341.03" y="34.47" width="9.53" height="9.53"/><rect class="cls-6" x="341.03" y="24.95" width="9.53" height="9.52"/><rect class="cls-6" x="341.03" y="15.42" width="9.53" height="9.53"/><rect class="cls-4" x="341.03" y="5.89" width="9.53" height="9.53"/><rect class="cls-5" x="331.5" y="92.31" width="9.53" height="9.52"/><rect class="cls-4" x="331.5" y="72.59" width="9.53" height="9.52"/><rect class="cls-6" x="331.5" y="63.06" width="9.53" height="9.53"/><rect class="cls-6" x="331.5" y="53.52" width="9.53" height="9.53"/><rect class="cls-6" x="331.5" y="44" width="9.53" height="9.52"/><rect class="cls-6" x="331.5" y="34.47" width="9.53" height="9.53"/><rect class="cls-6" x="331.5" y="24.95" width="9.53" height="9.52"/><rect class="cls-6" x="331.5" y="15.42" width="9.53" height="9.53"/><rect class="cls-4" x="331.5" y="5.89" width="9.53" height="9.53"/><rect class="cls-4" x="321.98" y="92.31" width="9.52" height="9.52"/><rect class="cls-4" x="321.98" y="72.59" width="9.52" height="9.52"/><rect class="cls-4" x="321.98" y="63.06" width="9.52" height="9.53"/><rect class="cls-4" x="321.98" y="53.52" width="9.52" height="9.53"/><rect class="cls-4" x="321.98" y="44" width="9.52" height="9.52"/><rect class="cls-4" x="321.98" y="34.47" width="9.52" height="9.53"/><rect class="cls-4" x="321.98" y="24.95" width="9.52" height="9.52"/><rect class="cls-4" x="321.98" y="15.42" width="9.52" height="9.53"/><rect class="cls-4" x="321.98" y="5.89" width="9.52" height="9.53"/><rect class="cls-5" x="312.45" y="92.31" width="9.53" height="9.52"/><rect class="cls-4" x="312.45" y="72.59" width="9.53" height="9.52"/><rect class="cls-6" x="312.45" y="63.06" width="9.53" height="9.53"/><rect class="cls-6" x="312.45" y="53.52" width="9.53" height="9.53"/><rect class="cls-6" x="312.45" y="44" width="9.53" height="9.52"/><rect class="cls-6" x="312.45" y="34.47" width="9.53" height="9.53"/><rect class="cls-6" x="312.45" y="24.95" width="9.53" height="9.52"/><rect class="cls-6" x="312.45" y="15.42" width="9.53" height="9.53"/><rect class="cls-4" x="312.45" y="5.89" width="9.53" height="9.53"/><rect class="cls-5" x="302.92" y="92.31" width="9.52" height="9.52"/><rect class="cls-4" x="302.92" y="72.59" width="9.52" height="9.52"/><rect class="cls-6" x="302.92" y="63.06" width="9.52" height="9.53"/><rect class="cls-6" x="302.92" y="53.52" width="9.52" height="9.53"/><rect class="cls-6" x="302.92" y="44" width="9.52" height="9.52"/><rect class="cls-6" x="302.92" y="34.47" width="9.52" height="9.53"/><rect class="cls-6" x="302.92" y="24.95" width="9.52" height="9.52"/><rect class="cls-6" x="302.92" y="15.42" width="9.52" height="9.53"/><rect class="cls-4" x="302.92" y="5.89" width="9.52" height="9.53"/><rect class="cls-4" x="293.39" y="92.31" width="9.53" height="9.52"/><rect class="cls-4" x="293.39" y="72.59" width="9.53" height="9.52"/><rect class="cls-4" x="293.39" y="63.06" width="9.53" height="9.53"/><rect class="cls-4" x="293.39" y="53.52" width="9.53" height="9.53"/><rect class="cls-4" x="293.39" y="44" width="9.53" height="9.52"/><rect class="cls-4" x="293.39" y="34.47" width="9.53" height="9.53"/><rect class="cls-4" x="293.39" y="24.95" width="9.53" height="9.52"/><rect class="cls-4" x="293.39" y="15.42" width="9.53" height="9.53"/><rect class="cls-4" x="293.39" y="5.89" width="9.53" height="9.53"/><rect class="cls-4" x="283.86" y="92.31" width="9.53" height="9.52"/><rect class="cls-4" x="283.86" y="72.59" width="9.53" height="9.52"/><rect class="cls-4" x="283.86" y="63.06" width="9.53" height="9.53"/><rect class="cls-4" x="283.86" y="53.52" width="9.53" height="9.53"/><rect class="cls-4" x="283.86" y="44" width="9.53" height="9.52"/><rect class="cls-4" x="283.86" y="34.47" width="9.53" height="9.53"/><rect class="cls-4" x="283.86" y="24.95" width="9.53" height="9.52"/><rect class="cls-4" x="283.86" y="15.42" width="9.53" height="9.53"/><rect class="cls-4" x="283.86" y="5.89" width="9.53" height="9.53"/><rect class="cls-4" x="264.02" y="72.66" width="9.57" height="9.57"/><rect class="cls-5" x="264.02" y="63.1" width="9.57" height="9.57"/><rect class="cls-5" x="264.02" y="53.52" width="9.57" height="9.57"/><rect class="cls-5" x="264.02" y="43.96" width="9.57" height="9.57"/><rect class="cls-5" x="264.02" y="34.39" width="9.57" height="9.57"/><rect class="cls-5" x="264.02" y="24.82" width="9.57" height="9.57"/><rect class="cls-5" x="264.02" y="15.25" width="9.57" height="9.57"/><rect class="cls-4" x="264.02" y="5.68" width="9.57" height="9.57"/><polygon class="cls-7" points="283.86 15.42 283.86 5.89 293.39 5.89 302.92 5.89 312.45 5.89 321.98 5.89 331.5 5.89 341.03 5.89 350.56 5.89 360.08 5.89 360.08 15.42 360.08 24.95 360.08 34.47 360.08 44 360.08 53.52 360.08 63.06 360.08 72.59 360.08 82.11 350.56 82.11 341.03 82.11 331.5 82.11 321.98 82.11 312.45 82.11 302.92 82.11 293.39 82.11 283.86 82.11 283.86 72.59 283.86 63.06 283.86 53.52 283.86 44 283.86 34.47 283.86 24.95 283.86 15.42"/><polyline class="cls-7" points="283.86 72.59 293.39 72.59 302.92 72.59 312.45 72.59 321.98 72.59 331.5 72.59 341.03 72.59 350.56 72.59 360.08 72.59"/><polyline class="cls-7" points="283.86 63.06 293.39 63.06 302.92 63.06 312.45 63.06 321.98 63.06 331.5 63.06 341.03 63.06 350.56 63.06 360.08 63.06"/><polyline class="cls-7" points="283.86 53.52 293.39 53.52 302.92 53.52 312.45 53.52 321.98 53.52 331.5 53.52 341.03 53.52 350.56 53.52 360.08 53.52"/><polyline class="cls-7" points="283.86 44 293.39 44 302.92 44 312.45 44 321.98 44 331.5 44 341.03 44 350.56 44 360.08 44"/><polyline class="cls-7" points="283.86 34.47 293.39 34.47 302.92 34.47 312.45 34.47 321.98 34.47 331.5 34.47 341.03 34.47 350.56 34.47 360.08 34.47"/><polyline class="cls-7" points="283.86 24.95 293.39 24.95 302.92 24.95 312.45 24.95 321.98 24.95 331.5 24.95 341.03 24.95 350.56 24.95 360.08 24.95"/><polyline class="cls-7" points="283.86 15.42 293.39 15.42 302.92 15.42 312.45 15.42 321.98 15.42 331.5 15.42 341.03 15.42 350.56 15.42 360.08 15.42"/><polyline class="cls-7" points="350.56 5.89 350.56 15.42 350.56 24.95 350.56 34.47 350.56 44 350.56 53.52 350.56 63.06 350.56 72.59 350.56 82.11"/><polyline class="cls-7" points="341.03 5.89 341.03 15.42 341.03 24.95 341.03 34.47 341.03 44 341.03 53.52 341.03 63.06 341.03 72.59 341.03 82.11"/><polyline class="cls-7" points="331.5 5.89 331.5 15.42 331.5 24.95 331.5 34.47 331.5 44 331.5 53.52 331.5 63.06 331.5 72.59 331.5 82.11"/><polyline class="cls-7" points="321.98 5.89 321.98 15.42 321.98 24.95 321.98 34.47 321.98 44 321.98 53.52 321.98 63.06 321.98 72.59 321.98 82.11"/><polyline class="cls-7" points="312.45 5.89 312.45 15.42 312.45 24.95 312.45 34.47 312.45 44 312.45 53.52 312.45 63.06 312.45 72.59 312.45 82.11"/><polyline class="cls-7" points="302.92 5.89 302.92 15.42 302.92 24.95 302.92 34.47 302.92 44 302.92 53.52 302.92 63.06 302.92 72.59 302.92 82.11"/><polyline class="cls-7" points="293.39 5.89 293.39 15.42 293.39 24.95 293.39 34.47 293.39 44 293.39 53.52 293.39 63.06 293.39 72.59 293.39 82.11"/><polygon class="cls-7" points="293.39 101.83 283.86 101.83 283.86 92.31 293.39 92.31 302.92 92.31 312.45 92.31 321.98 92.31 331.5 92.31 341.03 92.31 350.56 92.31 360.08 92.31 360.08 101.83 350.56 101.83 341.03 101.83 331.5 101.83 321.98 101.83 312.45 101.83 302.92 101.83 293.39 101.83"/><line class="cls-7" x1="350.56" y1="92.31" x2="350.56" y2="101.83"/><line class="cls-7" x1="341.03" y1="92.31" x2="341.03" y2="101.83"/><line class="cls-7" x1="331.5" y1="92.31" x2="331.5" y2="101.83"/><line class="cls-7" x1="321.98" y1="92.31" x2="321.98" y2="101.83"/><line class="cls-7" x1="312.45" y1="92.31" x2="312.45" y2="101.83"/><line class="cls-7" x1="302.92" y1="92.31" x2="302.92" y2="101.83"/><line class="cls-7" x1="293.39" y1="92.31" x2="293.39" y2="101.83"/><polygon class="cls-7" points="273.58 15.26 273.58 5.68 264.02 5.68 264.02 15.26 264.02 24.82 264.02 34.39 264.02 43.96 264.02 53.52 264.02 63.1 264.02 72.66 264.02 82.24 273.58 82.24 273.58 72.66 273.58 63.1 273.58 53.52 273.58 43.96 273.58 34.39 273.58 24.82 273.58 15.26"/><line class="cls-7" x1="273.59" y1="72.66" x2="264.02" y2="72.66"/><line class="cls-7" x1="273.59" y1="63.1" x2="264.02" y2="63.1"/><line class="cls-7" x1="273.59" y1="53.52" x2="264.02" y2="53.52"/><line class="cls-7" x1="273.59" y1="43.96" x2="264.02" y2="43.96"/><line class="cls-7" x1="273.59" y1="34.39" x2="264.02" y2="34.39"/><line class="cls-7" x1="273.59" y1="24.82" x2="264.02" y2="24.82"/><line class="cls-7" x1="273.59" y1="15.25" x2="264.02" y2="15.25"/><polyline class="cls-8" points="333.88 105.68 333.88 106.68 332.88 106.68"/><line class="cls-9" x1="331.86" y1="106.68" x2="320.09" y2="106.68"/><polyline class="cls-8" points="319.57 106.68 318.57 106.68 318.57 105.68"/><line class="cls-10" x1="318.57" y1="104.67" x2="318.57" y2="1.88"/><polyline class="cls-8" points="318.57 1.38 318.57 0.38 319.57 0.38"/><line class="cls-9" x1="320.6" y1="0.38" x2="332.37" y2="0.38"/><polyline class="cls-8" points="332.88 0.38 333.88 0.38 333.88 1.38"/><line class="cls-10" x1="333.88" y1="2.39" x2="333.88" y2="105.18"/><polyline class="cls-8" points="364.6 41.31 365.6 41.31 365.6 42.31"/><line class="cls-9" x1="365.6" y1="43.33" x2="365.6" y2="55.1"/><polyline class="cls-8" points="365.6 55.61 365.6 56.61 364.6 56.61"/><line class="cls-10" x1="363.59" y1="56.61" x2="260.8" y2="56.61"/><polyline class="cls-8" points="260.3 56.61 259.3 56.61 259.3 55.61"/><line class="cls-9" x1="259.29" y1="54.59" x2="259.29" y2="42.82"/><polyline class="cls-8" points="259.3 42.31 259.3 41.31 260.3 41.31"/><line class="cls-10" x1="261.31" y1="41.31" x2="364.1" y2="41.31"/><rect class="cls-11" x="522.87" y="17.91" width="38.52" height="62.1"/><line class="cls-11" x1="522.87" y1="69.66" x2="561.39" y2="69.66"/><line class="cls-11" x1="522.87" y1="59.31" x2="561.39" y2="59.31"/><line class="cls-11" x1="522.87" y1="48.96" x2="561.39" y2="48.96"/><line class="cls-11" x1="522.87" y1="38.61" x2="561.39" y2="38.61"/><line class="cls-11" x1="522.87" y1="28.26" x2="561.39" y2="28.26"/><line class="cls-11" x1="551.76" y1="17.91" x2="551.76" y2="80.01"/><line class="cls-11" x1="542.13" y1="17.91" x2="542.13" y2="80.01"/><line class="cls-11" x1="532.5" y1="17.91" x2="532.5" y2="80.01"/><text class="cls-12" transform="translate(88.71 126.37)">(a) Pruning with VIB masks</text><text class="cls-12" transform="translate(294.85 124.61)">(b) Post-Prune <tspan x="-8.46" y="9.6">Dimension Adaption</tspan></text><text class="cls-12" transform="translate(415.62 124.62)">(c) Post-Prune <tspan x="0.51" y="9.6">Weight Update</tspan></text><line class="cls-13" x1="116.43" y1="48.96" x2="130.31" y2="48.96"/><polygon class="cls-14" points="127.32 51.5 129.87 48.96 127.32 46.42 129.48 46.42 132.02 48.96 129.48 51.5 127.32 51.5"/><line class="cls-13" x1="239.36" y1="48.96" x2="253.24" y2="48.96"/><polygon class="cls-14" points="250.25 51.5 252.79 48.96 250.25 46.42 252.41 46.42 254.95 48.96 252.41 51.5 250.25 51.5"/><line class="cls-13" x1="377.1" y1="48.96" x2="390.98" y2="48.96"/><polygon class="cls-14" points="388 51.5 390.54 48.96 388 46.42 390.15 46.42 392.7 48.96 390.15 51.5 388 51.5"/><line class="cls-13" x1="486.84" y1="48.96" x2="500.72" y2="48.96"/><polygon class="cls-14" points="497.73 51.5 500.28 48.96 497.73 46.42 499.89 46.42 502.44 48.96 499.89 51.5 497.73 51.5"/><text class="cls-12" transform="translate(503.68 123.64)">(d) Final Compressed<tspan x="24.08" y="9.6">Weights</tspan></text><text class="cls-15" transform="translate(7.72 55) rotate(-90)">m­</text><text class="cls-15" transform="translate(10.72 47) rotate(-90) scale(0.58)">token</text><text class="cls-16" transform="translate(63.77 114.17)">m</text><text class="cls-16" transform="translate(72.66 117.5) scale(0.58)">dim</text><rect class="cls-3" x="2.38" y="136.91" width="9.77" height="9.77"/><rect class="cls-17" x="204.43" y="136.91" width="9.77" height="9.77"/><rect class="cls-1" x="106.62" y="136.91" width="9.77" height="9.77"/><text class="cls-12" transform="translate(15.44 145.28)">Frozen Model Weights</text><text class="cls-12" transform="translate(120.02 145.28)">Trainable VIB masks</text><text class="cls-12" transform="translate(217.32 145.29)">Pruned Weights</text></svg>