<?xml version="1.0" encoding="utf-8"?>
<!-- Generator: Adobe Illustrator 24.0.3, SVG Export Plug-In . SVG Version: 6.00 Build 0)  -->
<svg version="1.1" id="Layer_1" xmlns="http://www.w3.org/2000/svg" xmlns:xlink="http://www.w3.org/1999/xlink" x="0px" y="0px"
	 viewBox="0 0 612 168.3" style="enable-background:new 0 0 612 168.3;" xml:space="preserve">
<style type="text/css">
	.st0{fill:#FFFFFF;}
	.st1{fill:#C65C28;stroke:#000000;stroke-miterlimit:10;}
	.st2{font-family:'MyriadPro-Regular';}
	.st3{font-size:16.2706px;}
	.st4{fill:#BCE2F8;stroke:#000000;stroke-miterlimit:10;}
	.st5{fill:#ADAFB2;}
	.st6{fill:#C65C28;}
	.st7{fill:#BCE2F8;}
	.st8{fill:none;stroke:#000000;stroke-miterlimit:10;}
	.st9{fill:none;stroke:#000000;stroke-width:0.75;stroke-miterlimit:10;}
	.st10{fill:none;stroke:#000000;stroke-width:0.75;stroke-miterlimit:10;stroke-dasharray:2.0469,1.0235;}
	.st11{fill:none;stroke:#000000;stroke-width:0.75;stroke-miterlimit:10;stroke-dasharray:2.0254,1.0127;}
	.st12{fill:#7EA35A;stroke:#000000;stroke-miterlimit:10;}
	.st13{font-family:'ArialMT';}
	.st14{font-size:8px;}
	.st15{fill:none;stroke:#000000;stroke-width:1.5;stroke-miterlimit:10;}
	.st16{font-family:'Arial-BoldMT';}
	.st17{font-size:9px;}
	.st18{font-size:10px;}
	.st19{fill:#ADAFB2;stroke:#000000;stroke-miterlimit:10;}
</style>
<rect class="st0" width="612" height="168.3"/>
<g>
	<g>
		<rect x="449.6" y="100.1" class="st1" width="38.5" height="9.6"/>
		<line class="st1" x1="459.3" y1="100.1" x2="459.3" y2="109.7"/>
		<line class="st1" x1="468.9" y1="100.1" x2="468.9" y2="109.7"/>
		<line class="st1" x1="478.5" y1="100.1" x2="478.5" y2="109.7"/>
	</g>
	<text transform="matrix(1 0 0 1 465.5234 99.2343)" class="st2 st3">*</text>
	<g>
		<rect x="449.6" y="19" class="st4" width="38.5" height="62.1"/>
		<line class="st4" x1="449.6" y1="70.7" x2="488.2" y2="70.7"/>
		<line class="st4" x1="449.6" y1="60.4" x2="488.2" y2="60.4"/>
		<line class="st4" x1="449.6" y1="50" x2="488.2" y2="50"/>
		<line class="st4" x1="449.6" y1="39.7" x2="488.2" y2="39.7"/>
		<line class="st4" x1="449.6" y1="29.3" x2="488.2" y2="29.3"/>
		<line class="st4" x1="478.5" y1="19" x2="478.5" y2="81.1"/>
		<line class="st4" x1="468.9" y1="19" x2="468.9" y2="81.1"/>
		<line class="st4" x1="459.3" y1="19" x2="459.3" y2="81.1"/>
	</g>
	<g>
		<rect x="419.3" y="19" class="st1" width="10.4" height="62.1"/>
		<line class="st1" x1="419.3" y1="70.7" x2="429.6" y2="70.7"/>
		<line class="st1" x1="419.3" y1="60.4" x2="429.6" y2="60.4"/>
		<line class="st1" x1="419.3" y1="50" x2="429.6" y2="50"/>
		<line class="st1" x1="419.3" y1="39.7" x2="429.6" y2="39.7"/>
		<line class="st1" x1="419.3" y1="29.3" x2="429.6" y2="29.3"/>
	</g>
	<text transform="matrix(1 0 0 1 436.5002 57.78)" class="st2 st3">*</text>
</g>
<g>
	<g>
		<g>
			<rect x="52" y="14.7" class="st4" width="76.2" height="76.2"/>
			<line class="st4" x1="52" y1="81.4" x2="128.3" y2="81.4"/>
			<line class="st4" x1="52" y1="71.9" x2="128.3" y2="71.9"/>
			<line class="st4" x1="52" y1="62.3" x2="128.3" y2="62.3"/>
			<line class="st4" x1="52" y1="52.8" x2="128.3" y2="52.8"/>
			<line class="st4" x1="52" y1="43.3" x2="128.3" y2="43.3"/>
			<line class="st4" x1="52" y1="33.8" x2="128.3" y2="33.8"/>
			<line class="st4" x1="52" y1="24.2" x2="128.3" y2="24.2"/>
			<line class="st4" x1="118.7" y1="14.7" x2="118.7" y2="90.9"/>
			<line class="st4" x1="109.2" y1="14.7" x2="109.2" y2="90.9"/>
			<line class="st4" x1="99.7" y1="14.7" x2="99.7" y2="90.9"/>
			<line class="st4" x1="90.2" y1="14.7" x2="90.2" y2="90.9"/>
			<line class="st4" x1="80.6" y1="14.7" x2="80.6" y2="90.9"/>
			<line class="st4" x1="71.1" y1="14.7" x2="71.1" y2="90.9"/>
			<line class="st4" x1="61.6" y1="14.7" x2="61.6" y2="90.9"/>
		</g>
		<g>
			<rect x="52" y="101.1" class="st1" width="76.2" height="9.5"/>
			<line class="st1" x1="118.7" y1="101.1" x2="118.7" y2="110.7"/>
			<line class="st1" x1="109.2" y1="101.1" x2="109.2" y2="110.7"/>
			<line class="st1" x1="99.7" y1="101.1" x2="99.7" y2="110.7"/>
			<line class="st1" x1="90.2" y1="101.1" x2="90.2" y2="110.7"/>
			<line class="st1" x1="80.6" y1="101.1" x2="80.6" y2="110.7"/>
			<line class="st1" x1="71.1" y1="101.1" x2="71.1" y2="110.7"/>
			<line class="st1" x1="61.6" y1="101.1" x2="61.6" y2="110.7"/>
		</g>
	</g>
	<g>
		<rect x="32.2" y="14.5" class="st1" width="9.6" height="76.6"/>
		<line class="st1" x1="41.8" y1="81.5" x2="32.2" y2="81.5"/>
		<line class="st1" x1="41.8" y1="71.9" x2="32.2" y2="71.9"/>
		<line class="st1" x1="41.8" y1="62.3" x2="32.2" y2="62.3"/>
		<line class="st1" x1="41.8" y1="52.8" x2="32.2" y2="52.8"/>
		<line class="st1" x1="41.8" y1="43.2" x2="32.2" y2="43.2"/>
		<line class="st1" x1="41.8" y1="33.6" x2="32.2" y2="33.6"/>
		<line class="st1" x1="41.8" y1="24.1" x2="32.2" y2="24.1"/>
	</g>
</g>
<g>
	<g>
		<g id="XMLID_4_">
			<g>
				<rect x="240.2" y="101.1" class="st5" width="9.5" height="9.5"/>
				<rect x="240.2" y="81.4" class="st5" width="9.5" height="9.5"/>
				<rect x="240.2" y="71.9" class="st5" width="9.5" height="9.5"/>
				<rect x="240.2" y="62.4" class="st5" width="9.5" height="9.5"/>
				<rect x="240.2" y="52.8" class="st5" width="9.5" height="9.5"/>
				<rect x="240.2" y="43.3" class="st5" width="9.5" height="9.5"/>
				<rect x="240.2" y="33.8" class="st5" width="9.5" height="9.5"/>
				<rect x="240.2" y="24.2" class="st5" width="9.5" height="9.5"/>
				<rect x="240.2" y="14.7" class="st5" width="9.5" height="9.5"/>
				<rect x="230.7" y="101.1" class="st6" width="9.5" height="9.5"/>
				<rect x="230.7" y="81.4" class="st5" width="9.5" height="9.5"/>
				<rect x="230.7" y="71.9" class="st7" width="9.5" height="9.5"/>
				<rect x="230.7" y="62.4" class="st7" width="9.5" height="9.5"/>
				<rect x="230.7" y="52.8" class="st5" width="9.5" height="9.5"/>
				<rect x="230.7" y="43.3" class="st7" width="9.5" height="9.5"/>
				<rect x="230.7" y="33.8" class="st7" width="9.5" height="9.5"/>
				<rect x="230.7" y="24.2" class="st7" width="9.5" height="9.5"/>
				<rect x="230.7" y="14.7" class="st5" width="9.5" height="9.5"/>
				<rect x="221.2" y="101.1" class="st6" width="9.5" height="9.5"/>
				<rect x="221.2" y="81.4" class="st5" width="9.5" height="9.5"/>
				<rect x="221.2" y="71.9" class="st7" width="9.5" height="9.5"/>
				<rect x="221.2" y="62.4" class="st7" width="9.5" height="9.5"/>
				<rect x="221.2" y="52.8" class="st5" width="9.5" height="9.5"/>
				<rect x="221.2" y="43.3" class="st7" width="9.5" height="9.5"/>
				<rect x="221.2" y="33.8" class="st7" width="9.5" height="9.5"/>
				<rect x="221.2" y="24.2" class="st7" width="9.5" height="9.5"/>
				<rect x="221.2" y="14.7" class="st5" width="9.5" height="9.5"/>
				<rect x="211.7" y="101.1" class="st6" width="9.5" height="9.5"/>
				<rect x="211.7" y="81.4" class="st5" width="9.5" height="9.5"/>
				<rect x="211.7" y="71.9" class="st7" width="9.5" height="9.5"/>
				<rect x="211.7" y="62.4" class="st7" width="9.5" height="9.5"/>
				<rect x="211.7" y="52.8" class="st5" width="9.5" height="9.5"/>
				<rect x="211.7" y="43.3" class="st7" width="9.5" height="9.5"/>
				<rect x="211.7" y="33.8" class="st7" width="9.5" height="9.5"/>
				<rect x="211.7" y="24.2" class="st7" width="9.5" height="9.5"/>
				<rect x="211.7" y="14.7" class="st5" width="9.5" height="9.5"/>
				<rect x="202.1" y="101.1" class="st6" width="9.5" height="9.5"/>
				<rect x="202.1" y="81.4" class="st5" width="9.5" height="9.5"/>
				<rect x="202.1" y="71.9" class="st7" width="9.5" height="9.5"/>
				<rect x="202.1" y="62.4" class="st7" width="9.5" height="9.5"/>
				<rect x="202.1" y="52.8" class="st5" width="9.5" height="9.5"/>
				<rect x="202.1" y="43.3" class="st7" width="9.5" height="9.5"/>
				<rect x="202.1" y="33.8" class="st7" width="9.5" height="9.5"/>
				<rect x="202.1" y="24.2" class="st7" width="9.5" height="9.5"/>
				<rect x="202.1" y="14.7" class="st5" width="9.5" height="9.5"/>
				<rect x="192.6" y="101.1" class="st6" width="9.5" height="9.5"/>
				<rect x="192.6" y="81.4" class="st5" width="9.5" height="9.5"/>
				<rect x="192.6" y="71.9" class="st7" width="9.5" height="9.5"/>
				<rect x="192.6" y="62.4" class="st7" width="9.5" height="9.5"/>
				<rect x="192.6" y="52.8" class="st5" width="9.5" height="9.5"/>
				<rect x="192.6" y="43.3" class="st7" width="9.5" height="9.5"/>
				<rect x="192.6" y="33.8" class="st7" width="9.5" height="9.5"/>
				<rect x="192.6" y="24.2" class="st7" width="9.5" height="9.5"/>
				<rect x="192.6" y="14.7" class="st5" width="9.5" height="9.5"/>
				<rect x="183.1" y="101.1" class="st5" width="9.5" height="9.5"/>
				<rect x="183.1" y="81.4" class="st5" width="9.5" height="9.5"/>
				<rect x="183.1" y="71.9" class="st5" width="9.5" height="9.5"/>
				<rect x="183.1" y="62.4" class="st5" width="9.5" height="9.5"/>
				<rect x="183.1" y="52.8" class="st5" width="9.5" height="9.5"/>
				<rect x="183.1" y="43.3" class="st5" width="9.5" height="9.5"/>
				<rect x="183.1" y="33.8" class="st5" width="9.5" height="9.5"/>
				<rect x="183.1" y="24.2" class="st5" width="9.5" height="9.5"/>
				<rect x="183.1" y="14.7" class="st5" width="9.5" height="9.5"/>
				<rect x="173.6" y="101.1" class="st5" width="9.5" height="9.5"/>
				<rect x="173.6" y="81.4" class="st5" width="9.5" height="9.5"/>
				<rect x="173.6" y="71.9" class="st5" width="9.5" height="9.5"/>
				<rect x="173.6" y="62.4" class="st5" width="9.5" height="9.5"/>
				<rect x="173.6" y="52.8" class="st5" width="9.5" height="9.5"/>
				<rect x="173.6" y="43.3" class="st5" width="9.5" height="9.5"/>
				<rect x="173.6" y="33.8" class="st5" width="9.5" height="9.5"/>
				<rect x="173.6" y="24.2" class="st5" width="9.5" height="9.5"/>
				<rect x="173.6" y="14.7" class="st5" width="9.5" height="9.5"/>
				<rect x="153.7" y="81.5" class="st5" width="9.6" height="9.6"/>
				<rect x="153.7" y="71.9" class="st6" width="9.6" height="9.6"/>
				<rect x="153.7" y="62.4" class="st6" width="9.6" height="9.6"/>
				<rect x="153.7" y="52.8" class="st5" width="9.6" height="9.6"/>
				<rect x="153.7" y="43.2" class="st6" width="9.6" height="9.6"/>
				<rect x="153.7" y="33.6" class="st6" width="9.6" height="9.6"/>
				<rect x="153.7" y="24.1" class="st6" width="9.6" height="9.6"/>
				<rect x="153.7" y="14.5" class="st5" width="9.6" height="9.6"/>
			</g>
			<g>
				<polygon class="st8" points="173.6,24.2 173.6,14.7 183.1,14.7 192.6,14.7 202.1,14.7 211.7,14.7 221.2,14.7 230.7,14.7 
					240.2,14.7 249.8,14.7 249.8,24.2 249.8,33.8 249.8,43.3 249.8,52.8 249.8,62.4 249.8,71.9 249.8,81.4 249.8,90.9 240.2,90.9 
					230.7,90.9 221.2,90.9 211.7,90.9 202.1,90.9 192.6,90.9 183.1,90.9 173.6,90.9 173.6,81.4 173.6,71.9 173.6,62.4 173.6,52.8 
					173.6,43.3 173.6,33.8 				"/>
				<polyline class="st8" points="173.6,81.4 183.1,81.4 192.6,81.4 202.1,81.4 211.7,81.4 221.2,81.4 230.7,81.4 240.2,81.4 
					249.8,81.4 				"/>
				<polyline class="st8" points="173.6,71.9 183.1,71.9 192.6,71.9 202.1,71.9 211.7,71.9 221.2,71.9 230.7,71.9 240.2,71.9 
					249.8,71.9 				"/>
				<polyline class="st8" points="173.6,62.4 183.1,62.4 192.6,62.4 202.1,62.4 211.7,62.4 221.2,62.4 230.7,62.4 240.2,62.4 
					249.8,62.4 				"/>
				<polyline class="st8" points="173.6,52.8 183.1,52.8 192.6,52.8 202.1,52.8 211.7,52.8 221.2,52.8 230.7,52.8 240.2,52.8 
					249.8,52.8 				"/>
				<polyline class="st8" points="173.6,43.3 183.1,43.3 192.6,43.3 202.1,43.3 211.7,43.3 221.2,43.3 230.7,43.3 240.2,43.3 
					249.8,43.3 				"/>
				<polyline class="st8" points="173.6,33.8 183.1,33.8 192.6,33.8 202.1,33.8 211.7,33.8 221.2,33.8 230.7,33.8 240.2,33.8 
					249.8,33.8 				"/>
				<polyline class="st8" points="173.6,24.2 183.1,24.2 192.6,24.2 202.1,24.2 211.7,24.2 221.2,24.2 230.7,24.2 240.2,24.2 
					249.8,24.2 				"/>
				<polyline class="st8" points="240.2,14.7 240.2,24.2 240.2,33.8 240.2,43.3 240.2,52.8 240.2,62.4 240.2,71.9 240.2,81.4 
					240.2,90.9 				"/>
				<polyline class="st8" points="230.7,14.7 230.7,24.2 230.7,33.8 230.7,43.3 230.7,52.8 230.7,62.4 230.7,71.9 230.7,81.4 
					230.7,90.9 				"/>
				<polyline class="st8" points="221.2,14.7 221.2,24.2 221.2,33.8 221.2,43.3 221.2,52.8 221.2,62.4 221.2,71.9 221.2,81.4 
					221.2,90.9 				"/>
				<polyline class="st8" points="211.7,14.7 211.7,24.2 211.7,33.8 211.7,43.3 211.7,52.8 211.7,62.4 211.7,71.9 211.7,81.4 
					211.7,90.9 				"/>
				<polyline class="st8" points="202.1,14.7 202.1,24.2 202.1,33.8 202.1,43.3 202.1,52.8 202.1,62.4 202.1,71.9 202.1,81.4 
					202.1,90.9 				"/>
				<polyline class="st8" points="192.6,14.7 192.6,24.2 192.6,33.8 192.6,43.3 192.6,52.8 192.6,62.4 192.6,71.9 192.6,81.4 
					192.6,90.9 				"/>
				<polyline class="st8" points="183.1,14.7 183.1,24.2 183.1,33.8 183.1,43.3 183.1,52.8 183.1,62.4 183.1,71.9 183.1,81.4 
					183.1,90.9 				"/>
				<polygon class="st8" points="183.1,110.6 173.6,110.6 173.6,101.1 183.1,101.1 192.6,101.1 202.1,101.1 211.7,101.1 
					221.2,101.1 230.7,101.1 240.2,101.1 249.8,101.1 249.8,110.6 240.2,110.6 230.7,110.6 221.2,110.6 211.7,110.6 202.1,110.6 
					192.6,110.6 				"/>
				<line class="st8" x1="240.2" y1="101.1" x2="240.2" y2="110.6"/>
				<line class="st8" x1="230.7" y1="101.1" x2="230.7" y2="110.6"/>
				<line class="st8" x1="221.2" y1="101.1" x2="221.2" y2="110.6"/>
				<line class="st8" x1="211.7" y1="101.1" x2="211.7" y2="110.6"/>
				<line class="st8" x1="202.1" y1="101.1" x2="202.1" y2="110.6"/>
				<line class="st8" x1="192.6" y1="101.1" x2="192.6" y2="110.6"/>
				<line class="st8" x1="183.1" y1="101.1" x2="183.1" y2="110.6"/>
				<polygon class="st8" points="163.3,24.1 163.3,14.5 153.7,14.5 153.7,24.1 153.7,33.6 153.7,43.2 153.7,52.8 153.7,62.4 
					153.7,71.9 153.7,81.5 153.7,91.1 163.3,91.1 163.3,81.5 163.3,71.9 163.3,62.4 163.3,52.8 163.3,43.2 163.3,33.6 				"/>
				<line class="st8" x1="163.3" y1="81.5" x2="153.7" y2="81.5"/>
				<line class="st8" x1="163.3" y1="71.9" x2="153.7" y2="71.9"/>
				<line class="st8" x1="163.3" y1="62.4" x2="153.7" y2="62.4"/>
				<line class="st8" x1="163.3" y1="52.8" x2="153.7" y2="52.8"/>
				<line class="st8" x1="163.3" y1="43.2" x2="153.7" y2="43.2"/>
				<line class="st8" x1="163.3" y1="33.6" x2="153.7" y2="33.6"/>
				<line class="st8" x1="163.3" y1="24.1" x2="153.7" y2="24.1"/>
			</g>
		</g>
	</g>
</g>
<g>
	<g>
		<g id="XMLID_5_">
			<g>
				<rect x="367.3" y="101.1" class="st5" width="9.5" height="9.5"/>
				<rect x="367.3" y="81.4" class="st5" width="9.5" height="9.5"/>
				<rect x="367.3" y="71.9" class="st5" width="9.5" height="9.5"/>
				<rect x="367.3" y="62.3" class="st5" width="9.5" height="9.5"/>
				<rect x="367.3" y="52.8" class="st5" width="9.5" height="9.5"/>
				<rect x="367.3" y="43.3" class="st5" width="9.5" height="9.5"/>
				<rect x="367.3" y="33.8" class="st5" width="9.5" height="9.5"/>
				<rect x="367.3" y="24.2" class="st5" width="9.5" height="9.5"/>
				<rect x="367.3" y="14.7" class="st5" width="9.5" height="9.5"/>
				<rect x="357.8" y="101.1" class="st6" width="9.5" height="9.5"/>
				<rect x="357.8" y="81.4" class="st5" width="9.5" height="9.5"/>
				<rect x="357.8" y="71.9" class="st7" width="9.5" height="9.5"/>
				<rect x="357.8" y="62.3" class="st7" width="9.5" height="9.5"/>
				<rect x="357.8" y="52.8" class="st7" width="9.5" height="9.5"/>
				<rect x="357.8" y="43.3" class="st7" width="9.5" height="9.5"/>
				<rect x="357.8" y="33.8" class="st7" width="9.5" height="9.5"/>
				<rect x="357.8" y="24.2" class="st7" width="9.5" height="9.5"/>
				<rect x="357.8" y="14.7" class="st5" width="9.5" height="9.5"/>
				<rect x="348.3" y="101.1" class="st6" width="9.5" height="9.5"/>
				<rect x="348.3" y="81.4" class="st5" width="9.5" height="9.5"/>
				<rect x="348.3" y="71.9" class="st7" width="9.5" height="9.5"/>
				<rect x="348.3" y="62.3" class="st7" width="9.5" height="9.5"/>
				<rect x="348.3" y="52.8" class="st7" width="9.5" height="9.5"/>
				<rect x="348.3" y="43.3" class="st7" width="9.5" height="9.5"/>
				<rect x="348.3" y="33.8" class="st7" width="9.5" height="9.5"/>
				<rect x="348.3" y="24.2" class="st7" width="9.5" height="9.5"/>
				<rect x="348.3" y="14.7" class="st5" width="9.5" height="9.5"/>
				<rect x="338.7" y="101.1" class="st5" width="9.5" height="9.5"/>
				<rect x="338.7" y="81.4" class="st5" width="9.5" height="9.5"/>
				<rect x="338.7" y="71.9" class="st5" width="9.5" height="9.5"/>
				<rect x="338.7" y="62.3" class="st5" width="9.5" height="9.5"/>
				<rect x="338.7" y="52.8" class="st5" width="9.5" height="9.5"/>
				<rect x="338.7" y="43.3" class="st5" width="9.5" height="9.5"/>
				<rect x="338.7" y="33.8" class="st5" width="9.5" height="9.5"/>
				<rect x="338.7" y="24.2" class="st5" width="9.5" height="9.5"/>
				<rect x="338.7" y="14.7" class="st5" width="9.5" height="9.5"/>
				<rect x="329.2" y="101.1" class="st6" width="9.5" height="9.5"/>
				<rect x="329.2" y="81.4" class="st5" width="9.5" height="9.5"/>
				<rect x="329.2" y="71.9" class="st7" width="9.5" height="9.5"/>
				<rect x="329.2" y="62.3" class="st7" width="9.5" height="9.5"/>
				<rect x="329.2" y="52.8" class="st7" width="9.5" height="9.5"/>
				<rect x="329.2" y="43.3" class="st7" width="9.5" height="9.5"/>
				<rect x="329.2" y="33.8" class="st7" width="9.5" height="9.5"/>
				<rect x="329.2" y="24.2" class="st7" width="9.5" height="9.5"/>
				<rect x="329.2" y="14.7" class="st5" width="9.5" height="9.5"/>
				<rect x="319.7" y="101.1" class="st6" width="9.5" height="9.5"/>
				<rect x="319.7" y="81.4" class="st5" width="9.5" height="9.5"/>
				<rect x="319.7" y="71.9" class="st7" width="9.5" height="9.5"/>
				<rect x="319.7" y="62.3" class="st7" width="9.5" height="9.5"/>
				<rect x="319.7" y="52.8" class="st7" width="9.5" height="9.5"/>
				<rect x="319.7" y="43.3" class="st7" width="9.5" height="9.5"/>
				<rect x="319.7" y="33.8" class="st7" width="9.5" height="9.5"/>
				<rect x="319.7" y="24.2" class="st7" width="9.5" height="9.5"/>
				<rect x="319.7" y="14.7" class="st5" width="9.5" height="9.5"/>
				<rect x="310.1" y="101.1" class="st5" width="9.5" height="9.5"/>
				<rect x="310.1" y="81.4" class="st5" width="9.5" height="9.5"/>
				<rect x="310.1" y="71.9" class="st5" width="9.5" height="9.5"/>
				<rect x="310.1" y="62.3" class="st5" width="9.5" height="9.5"/>
				<rect x="310.1" y="52.8" class="st5" width="9.5" height="9.5"/>
				<rect x="310.1" y="43.3" class="st5" width="9.5" height="9.5"/>
				<rect x="310.1" y="33.8" class="st5" width="9.5" height="9.5"/>
				<rect x="310.1" y="24.2" class="st5" width="9.5" height="9.5"/>
				<rect x="310.1" y="14.7" class="st5" width="9.5" height="9.5"/>
				<rect x="300.6" y="101.1" class="st5" width="9.5" height="9.5"/>
				<rect x="300.6" y="81.4" class="st5" width="9.5" height="9.5"/>
				<rect x="300.6" y="71.9" class="st5" width="9.5" height="9.5"/>
				<rect x="300.6" y="62.3" class="st5" width="9.5" height="9.5"/>
				<rect x="300.6" y="52.8" class="st5" width="9.5" height="9.5"/>
				<rect x="300.6" y="43.3" class="st5" width="9.5" height="9.5"/>
				<rect x="300.6" y="33.8" class="st5" width="9.5" height="9.5"/>
				<rect x="300.6" y="24.2" class="st5" width="9.5" height="9.5"/>
				<rect x="300.6" y="14.7" class="st5" width="9.5" height="9.5"/>
				<rect x="280.8" y="81.5" class="st5" width="9.6" height="9.6"/>
				<rect x="280.8" y="71.9" class="st6" width="9.6" height="9.6"/>
				<rect x="280.8" y="62.3" class="st6" width="9.6" height="9.6"/>
				<rect x="280.8" y="52.8" class="st6" width="9.6" height="9.6"/>
				<rect x="280.8" y="43.2" class="st6" width="9.6" height="9.6"/>
				<rect x="280.8" y="33.6" class="st6" width="9.6" height="9.6"/>
				<rect x="280.8" y="24.1" class="st6" width="9.6" height="9.6"/>
				<rect x="280.8" y="14.5" class="st5" width="9.6" height="9.6"/>
			</g>
			<g>
				<polygon class="st8" points="300.6,24.2 300.6,14.7 310.1,14.7 319.7,14.7 329.2,14.7 338.7,14.7 348.3,14.7 357.8,14.7 
					367.3,14.7 376.8,14.7 376.8,24.2 376.8,33.8 376.8,43.3 376.8,52.8 376.8,62.3 376.8,71.9 376.8,81.4 376.8,90.9 367.3,90.9 
					357.8,90.9 348.3,90.9 338.7,90.9 329.2,90.9 319.7,90.9 310.1,90.9 300.6,90.9 300.6,81.4 300.6,71.9 300.6,62.3 300.6,52.8 
					300.6,43.3 300.6,33.8 				"/>
				<polyline class="st8" points="300.6,81.4 310.1,81.4 319.7,81.4 329.2,81.4 338.7,81.4 348.3,81.4 357.8,81.4 367.3,81.4 
					376.8,81.4 				"/>
				<polyline class="st8" points="300.6,71.9 310.1,71.9 319.7,71.9 329.2,71.9 338.7,71.9 348.3,71.9 357.8,71.9 367.3,71.9 
					376.8,71.9 				"/>
				<polyline class="st8" points="300.6,62.3 310.1,62.3 319.7,62.3 329.2,62.3 338.7,62.3 348.3,62.3 357.8,62.3 367.3,62.3 
					376.8,62.3 				"/>
				<polyline class="st8" points="300.6,52.8 310.1,52.8 319.7,52.8 329.2,52.8 338.7,52.8 348.3,52.8 357.8,52.8 367.3,52.8 
					376.8,52.8 				"/>
				<polyline class="st8" points="300.6,43.3 310.1,43.3 319.7,43.3 329.2,43.3 338.7,43.3 348.3,43.3 357.8,43.3 367.3,43.3 
					376.8,43.3 				"/>
				<polyline class="st8" points="300.6,33.8 310.1,33.8 319.7,33.8 329.2,33.8 338.7,33.8 348.3,33.8 357.8,33.8 367.3,33.8 
					376.8,33.8 				"/>
				<polyline class="st8" points="300.6,24.2 310.1,24.2 319.7,24.2 329.2,24.2 338.7,24.2 348.3,24.2 357.8,24.2 367.3,24.2 
					376.8,24.2 				"/>
				<polyline class="st8" points="367.3,14.7 367.3,24.2 367.3,33.8 367.3,43.3 367.3,52.8 367.3,62.3 367.3,71.9 367.3,81.4 
					367.3,90.9 				"/>
				<polyline class="st8" points="357.8,14.7 357.8,24.2 357.8,33.8 357.8,43.3 357.8,52.8 357.8,62.3 357.8,71.9 357.8,81.4 
					357.8,90.9 				"/>
				<polyline class="st8" points="348.3,14.7 348.3,24.2 348.3,33.8 348.3,43.3 348.3,52.8 348.3,62.3 348.3,71.9 348.3,81.4 
					348.3,90.9 				"/>
				<polyline class="st8" points="338.7,14.7 338.7,24.2 338.7,33.8 338.7,43.3 338.7,52.8 338.7,62.3 338.7,71.9 338.7,81.4 
					338.7,90.9 				"/>
				<polyline class="st8" points="329.2,14.7 329.2,24.2 329.2,33.8 329.2,43.3 329.2,52.8 329.2,62.3 329.2,71.9 329.2,81.4 
					329.2,90.9 				"/>
				<polyline class="st8" points="319.7,14.7 319.7,24.2 319.7,33.8 319.7,43.3 319.7,52.8 319.7,62.3 319.7,71.9 319.7,81.4 
					319.7,90.9 				"/>
				<polyline class="st8" points="310.1,14.7 310.1,24.2 310.1,33.8 310.1,43.3 310.1,52.8 310.1,62.3 310.1,71.9 310.1,81.4 
					310.1,90.9 				"/>
				<polygon class="st8" points="310.1,110.7 300.6,110.7 300.6,101.1 310.1,101.1 319.7,101.1 329.2,101.1 338.7,101.1 
					348.3,101.1 357.8,101.1 367.3,101.1 376.8,101.1 376.8,110.7 367.3,110.7 357.8,110.7 348.3,110.7 338.7,110.7 329.2,110.7 
					319.7,110.7 				"/>
				<line class="st8" x1="367.3" y1="101.1" x2="367.3" y2="110.7"/>
				<line class="st8" x1="357.8" y1="101.1" x2="357.8" y2="110.7"/>
				<line class="st8" x1="348.3" y1="101.1" x2="348.3" y2="110.7"/>
				<line class="st8" x1="338.7" y1="101.1" x2="338.7" y2="110.7"/>
				<line class="st8" x1="329.2" y1="101.1" x2="329.2" y2="110.7"/>
				<line class="st8" x1="319.7" y1="101.1" x2="319.7" y2="110.7"/>
				<line class="st8" x1="310.1" y1="101.1" x2="310.1" y2="110.7"/>
				<polygon class="st8" points="290.3,24.1 290.3,14.5 280.8,14.5 280.8,24.1 280.8,33.6 280.8,43.2 280.8,52.8 280.8,62.3 
					280.8,71.9 280.8,81.5 280.8,91.1 290.3,91.1 290.3,81.5 290.3,71.9 290.3,62.3 290.3,52.8 290.3,43.2 290.3,33.6 				"/>
				<line class="st8" x1="290.3" y1="81.5" x2="280.8" y2="81.5"/>
				<line class="st8" x1="290.3" y1="71.9" x2="280.8" y2="71.9"/>
				<line class="st8" x1="290.3" y1="62.3" x2="280.8" y2="62.3"/>
				<line class="st8" x1="290.3" y1="52.8" x2="280.8" y2="52.8"/>
				<line class="st8" x1="290.3" y1="43.2" x2="280.8" y2="43.2"/>
				<line class="st8" x1="290.3" y1="33.6" x2="280.8" y2="33.6"/>
				<line class="st8" x1="290.3" y1="24.1" x2="280.8" y2="24.1"/>
			</g>
		</g>
	</g>
	<g>
		<g>
			<polyline class="st9" points="350.6,114.5 350.6,115.5 349.6,115.5 			"/>
			<line class="st10" x1="348.6" y1="115.5" x2="336.8" y2="115.5"/>
			<polyline class="st9" points="336.3,115.5 335.3,115.5 335.3,114.5 			"/>
			<line class="st11" x1="335.3" y1="113.5" x2="335.3" y2="10.7"/>
			<polyline class="st9" points="335.3,10.2 335.3,9.2 336.3,9.2 			"/>
			<line class="st10" x1="337.4" y1="9.2" x2="349.1" y2="9.2"/>
			<polyline class="st9" points="349.6,9.2 350.6,9.2 350.6,10.2 			"/>
			<line class="st11" x1="350.6" y1="11.2" x2="350.6" y2="114"/>
		</g>
	</g>
	<g>
		<g>
			<polyline class="st9" points="381.4,50.1 382.4,50.1 382.4,51.1 			"/>
			<line class="st10" x1="382.4" y1="52.2" x2="382.4" y2="63.9"/>
			<polyline class="st9" points="382.4,64.4 382.4,65.4 381.4,65.4 			"/>
			<line class="st11" x1="380.3" y1="65.4" x2="277.6" y2="65.4"/>
			<polyline class="st9" points="277.1,65.4 276.1,65.4 276.1,64.4 			"/>
			<line class="st10" x1="276.1" y1="63.4" x2="276.1" y2="51.6"/>
			<polyline class="st9" points="276.1,51.1 276.1,50.1 277.1,50.1 			"/>
			<line class="st11" x1="278.1" y1="50.1" x2="380.9" y2="50.1"/>
		</g>
	</g>
</g>
<g>
	<rect x="539.6" y="26.7" class="st12" width="38.5" height="62.1"/>
	<line class="st12" x1="539.6" y1="78.5" x2="578.1" y2="78.5"/>
	<line class="st12" x1="539.6" y1="68.1" x2="578.1" y2="68.1"/>
	<line class="st12" x1="539.6" y1="57.8" x2="578.1" y2="57.8"/>
	<line class="st12" x1="539.6" y1="47.4" x2="578.1" y2="47.4"/>
	<line class="st12" x1="539.6" y1="37.1" x2="578.1" y2="37.1"/>
	<line class="st12" x1="568.5" y1="26.7" x2="568.5" y2="88.8"/>
	<line class="st12" x1="558.9" y1="26.7" x2="558.9" y2="88.8"/>
	<line class="st12" x1="549.3" y1="26.7" x2="549.3" y2="88.8"/>
</g>
<text transform="matrix(1 0 0 1 105.4644 135.1869)" class="st13 st14">(a) Pruning with VIB masks</text>
<text transform="matrix(1 0 0 1 311.6122 133.4347)"><tspan x="0" y="0" class="st13 st14">(b) Post-Prune </tspan><tspan x="-8.7" y="9.6" class="st13 st14">Dimension Adaption</tspan></text>
<text transform="matrix(1 0 0 1 432.3739 133.4349)"><tspan x="0" y="0" class="st13 st14">(c) Post-Prune </tspan><tspan x="0.4" y="9.6" class="st13 st14">Weight Update</tspan></text>
<g>
	<g>
		<line class="st15" x1="133.2" y1="57.8" x2="147.1" y2="57.8"/>
		<g>
			<polygon points="144.1,60.3 146.6,57.8 144.1,55.2 146.2,55.2 148.8,57.8 146.2,60.3 			"/>
		</g>
	</g>
</g>
<g>
	<g>
		<line class="st15" x1="256.1" y1="57.8" x2="270" y2="57.8"/>
		<g>
			<polygon points="267,60.3 269.6,57.8 267,55.2 269.2,55.2 271.7,57.8 269.2,60.3 			"/>
		</g>
	</g>
</g>
<g>
	<g>
		<line class="st15" x1="393.9" y1="57.8" x2="407.7" y2="57.8"/>
		<g>
			<polygon points="404.8,60.3 407.3,57.8 404.8,55.2 406.9,55.2 409.5,57.8 406.9,60.3 			"/>
		</g>
	</g>
</g>
<g>
	<g>
		<line class="st15" x1="503.6" y1="57.8" x2="517.5" y2="57.8"/>
		<g>
			<polygon points="514.5,60.3 517,57.8 514.5,55.2 516.6,55.2 519.2,57.8 516.6,60.3 			"/>
		</g>
	</g>
</g>
<text transform="matrix(1 0 0 1 520.4326 132.4638)"><tspan x="0" y="0" class="st13 st14">(d) Final Compressed</tspan><tspan x="24" y="9.6" class="st13 st14">Weights</tspan></text>
<text transform="matrix(0 -1 1 0 24.4785 63.8188)" class="st16 st17">m­</text>
<text transform="matrix(0 -0.583 0.583 0 27.4755 55.8164)" class="st16 st17">token</text>
<text transform="matrix(1 0 0 1 80.5231 122.9914)" class="st16 st18">m</text>
<text transform="matrix(0.583 0 0 0.583 89.4147 126.3215)" class="st16 st18">dim</text>
<rect x="19.1" y="145.7" class="st4" width="9.8" height="9.8"/>
<rect x="221.2" y="145.7" class="st19" width="9.8" height="9.8"/>
<rect x="123.4" y="145.7" class="st1" width="9.8" height="9.8"/>
<text transform="matrix(1 0 0 1 32.1944 154.1049)" class="st13 st14">Frozen Model Weights</text>
<text transform="matrix(1 0 0 1 136.7737 154.1048)" class="st13 st14">Trainable VIB masks</text>
<text transform="matrix(1 0 0 1 234.0806 154.1049)" class="st13 st14">Pruned Weights</text>
</svg>
