<?xml version="1.0" encoding="utf-8"?>
<!-- Generator: Adobe Illustrator 24.0.3, SVG Export Plug-In . SVG Version: 6.00 Build 0)  -->
<svg version="1.1" id="Layer_1" xmlns="http://www.w3.org/2000/svg" xmlns:xlink="http://www.w3.org/1999/xlink" x="0px" y="0px"
	 viewBox="0 0 612 792" style="enable-background:new 0 0 612 792;" xml:space="preserve">
<style type="text/css">
	.st0{fill:#FFFFFF;}
	.st1{fill:#C65C28;stroke:#000000;stroke-miterlimit:10;}
	.st2{font-family:'MyriadPro-Regular';}
	.st3{font-size:16.2706px;}
	.st4{fill:#BCE2F8;stroke:#000000;stroke-miterlimit:10;}
	.st5{fill:#ADAFB2;}
	.st6{fill:#C65C28;}
	.st7{fill:#BCE2F8;}
	.st8{fill:none;stroke:#000000;stroke-miterlimit:10;}
	.st9{fill:none;stroke:#000000;stroke-width:0.75;stroke-miterlimit:10;}
	.st10{fill:none;stroke:#000000;stroke-width:0.75;stroke-miterlimit:10;stroke-dasharray:2.0469,1.0235;}
	.st11{fill:none;stroke:#000000;stroke-width:0.75;stroke-miterlimit:10;stroke-dasharray:2.0254,1.0127;}
	.st12{fill:#7EA35A;stroke:#000000;stroke-miterlimit:10;}
	.st13{font-family:'ArialMT';}
	.st14{font-size:8px;}
	.st15{fill:none;stroke:#000000;stroke-width:1.5;stroke-miterlimit:10;}
	.st16{font-family:'Arial-BoldMT';}
	.st17{font-size:9px;}
	.st18{font-size:10px;}
	.st19{fill:#ADAFB2;stroke:#000000;stroke-miterlimit:10;}
</style>
<rect y="101.4" class="st0" width="612" height="167.9"/>
<g>
	<g>
		<rect x="449.6" y="200.7" class="st1" width="38.5" height="9.6"/>
		<line class="st1" x1="459.3" y1="200.7" x2="459.3" y2="210.4"/>
		<line class="st1" x1="468.9" y1="200.7" x2="468.9" y2="210.4"/>
		<line class="st1" x1="478.5" y1="200.7" x2="478.5" y2="210.4"/>
	</g>
	<text transform="matrix(1 0 0 1 465.5234 199.9219)" class="st2 st3">*</text>
	<g>
		<rect x="449.6" y="119.7" class="st4" width="38.5" height="62.1"/>
		<line class="st4" x1="449.6" y1="171.4" x2="488.2" y2="171.4"/>
		<line class="st4" x1="449.6" y1="161.1" x2="488.2" y2="161.1"/>
		<line class="st4" x1="449.6" y1="150.7" x2="488.2" y2="150.7"/>
		<line class="st4" x1="449.6" y1="140.4" x2="488.2" y2="140.4"/>
		<line class="st4" x1="449.6" y1="130" x2="488.2" y2="130"/>
		<line class="st4" x1="478.5" y1="119.7" x2="478.5" y2="181.8"/>
		<line class="st4" x1="468.9" y1="119.7" x2="468.9" y2="181.8"/>
		<line class="st4" x1="459.3" y1="119.7" x2="459.3" y2="181.8"/>
	</g>
	<g>
		<rect x="419.3" y="119.7" class="st1" width="10.4" height="62.1"/>
		<line class="st1" x1="419.3" y1="171.4" x2="429.6" y2="171.4"/>
		<line class="st1" x1="419.3" y1="161.1" x2="429.6" y2="161.1"/>
		<line class="st1" x1="419.3" y1="150.7" x2="429.6" y2="150.7"/>
		<line class="st1" x1="419.3" y1="140.4" x2="429.6" y2="140.4"/>
		<line class="st1" x1="419.3" y1="130" x2="429.6" y2="130"/>
	</g>
	<text transform="matrix(1 0 0 1 436.5002 158.4676)" class="st2 st3">*</text>
</g>
<g>
	<g>
		<g>
			<rect x="52" y="115.4" class="st4" width="76.2" height="76.2"/>
			<line class="st4" x1="52" y1="182.1" x2="128.3" y2="182.1"/>
			<line class="st4" x1="52" y1="172.6" x2="128.3" y2="172.6"/>
			<line class="st4" x1="52" y1="163" x2="128.3" y2="163"/>
			<line class="st4" x1="52" y1="153.5" x2="128.3" y2="153.5"/>
			<line class="st4" x1="52" y1="144" x2="128.3" y2="144"/>
			<line class="st4" x1="52" y1="134.5" x2="128.3" y2="134.5"/>
			<line class="st4" x1="52" y1="124.9" x2="128.3" y2="124.9"/>
			<line class="st4" x1="118.7" y1="115.4" x2="118.7" y2="191.6"/>
			<line class="st4" x1="109.2" y1="115.4" x2="109.2" y2="191.6"/>
			<line class="st4" x1="99.7" y1="115.4" x2="99.7" y2="191.6"/>
			<line class="st4" x1="90.2" y1="115.4" x2="90.2" y2="191.6"/>
			<line class="st4" x1="80.6" y1="115.4" x2="80.6" y2="191.6"/>
			<line class="st4" x1="71.1" y1="115.4" x2="71.1" y2="191.6"/>
			<line class="st4" x1="61.6" y1="115.4" x2="61.6" y2="191.6"/>
		</g>
		<g>
			<rect x="52" y="201.8" class="st1" width="76.2" height="9.5"/>
			<line class="st1" x1="118.7" y1="201.8" x2="118.7" y2="211.3"/>
			<line class="st1" x1="109.2" y1="201.8" x2="109.2" y2="211.3"/>
			<line class="st1" x1="99.7" y1="201.8" x2="99.7" y2="211.3"/>
			<line class="st1" x1="90.2" y1="201.8" x2="90.2" y2="211.3"/>
			<line class="st1" x1="80.6" y1="201.8" x2="80.6" y2="211.3"/>
			<line class="st1" x1="71.1" y1="201.8" x2="71.1" y2="211.3"/>
			<line class="st1" x1="61.6" y1="201.8" x2="61.6" y2="211.3"/>
		</g>
	</g>
	<g>
		<rect x="32.2" y="115.2" class="st1" width="9.6" height="76.6"/>
		<line class="st1" x1="41.8" y1="182.2" x2="32.2" y2="182.2"/>
		<line class="st1" x1="41.8" y1="172.6" x2="32.2" y2="172.6"/>
		<line class="st1" x1="41.8" y1="163" x2="32.2" y2="163"/>
		<line class="st1" x1="41.8" y1="153.5" x2="32.2" y2="153.5"/>
		<line class="st1" x1="41.8" y1="143.9" x2="32.2" y2="143.9"/>
		<line class="st1" x1="41.8" y1="134.3" x2="32.2" y2="134.3"/>
		<line class="st1" x1="41.8" y1="124.8" x2="32.2" y2="124.8"/>
	</g>
</g>
<g>
	<g>
		<g id="XMLID_4_">
			<g>
				<rect x="240.2" y="201.8" class="st5" width="9.5" height="9.5"/>
				<rect x="240.2" y="182.1" class="st5" width="9.5" height="9.5"/>
				<rect x="240.2" y="172.6" class="st5" width="9.5" height="9.5"/>
				<rect x="240.2" y="163" class="st5" width="9.5" height="9.5"/>
				<rect x="240.2" y="153.5" class="st5" width="9.5" height="9.5"/>
				<rect x="240.2" y="144" class="st5" width="9.5" height="9.5"/>
				<rect x="240.2" y="134.5" class="st5" width="9.5" height="9.5"/>
				<rect x="240.2" y="124.9" class="st5" width="9.5" height="9.5"/>
				<rect x="240.2" y="115.4" class="st5" width="9.5" height="9.5"/>
				<rect x="230.7" y="201.8" class="st6" width="9.5" height="9.5"/>
				<rect x="230.7" y="182.1" class="st5" width="9.5" height="9.5"/>
				<rect x="230.7" y="172.6" class="st7" width="9.5" height="9.5"/>
				<rect x="230.7" y="163" class="st7" width="9.5" height="9.5"/>
				<rect x="230.7" y="153.5" class="st5" width="9.5" height="9.5"/>
				<rect x="230.7" y="144" class="st7" width="9.5" height="9.5"/>
				<rect x="230.7" y="134.5" class="st7" width="9.5" height="9.5"/>
				<rect x="230.7" y="124.9" class="st7" width="9.5" height="9.5"/>
				<rect x="230.7" y="115.4" class="st5" width="9.5" height="9.5"/>
				<rect x="221.2" y="201.8" class="st6" width="9.5" height="9.5"/>
				<rect x="221.2" y="182.1" class="st5" width="9.5" height="9.5"/>
				<rect x="221.2" y="172.6" class="st7" width="9.5" height="9.5"/>
				<rect x="221.2" y="163" class="st7" width="9.5" height="9.5"/>
				<rect x="221.2" y="153.5" class="st5" width="9.5" height="9.5"/>
				<rect x="221.2" y="144" class="st7" width="9.5" height="9.5"/>
				<rect x="221.2" y="134.5" class="st7" width="9.5" height="9.5"/>
				<rect x="221.2" y="124.9" class="st7" width="9.5" height="9.5"/>
				<rect x="221.2" y="115.4" class="st5" width="9.5" height="9.5"/>
				<rect x="211.7" y="201.8" class="st6" width="9.5" height="9.5"/>
				<rect x="211.7" y="182.1" class="st5" width="9.5" height="9.5"/>
				<rect x="211.7" y="172.6" class="st7" width="9.5" height="9.5"/>
				<rect x="211.7" y="163" class="st7" width="9.5" height="9.5"/>
				<rect x="211.7" y="153.5" class="st5" width="9.5" height="9.5"/>
				<rect x="211.7" y="144" class="st7" width="9.5" height="9.5"/>
				<rect x="211.7" y="134.5" class="st7" width="9.5" height="9.5"/>
				<rect x="211.7" y="124.9" class="st7" width="9.5" height="9.5"/>
				<rect x="211.7" y="115.4" class="st5" width="9.5" height="9.5"/>
				<rect x="202.1" y="201.8" class="st6" width="9.5" height="9.5"/>
				<rect x="202.1" y="182.1" class="st5" width="9.5" height="9.5"/>
				<rect x="202.1" y="172.6" class="st7" width="9.5" height="9.5"/>
				<rect x="202.1" y="163" class="st7" width="9.5" height="9.5"/>
				<rect x="202.1" y="153.5" class="st5" width="9.5" height="9.5"/>
				<rect x="202.1" y="144" class="st7" width="9.5" height="9.5"/>
				<rect x="202.1" y="134.5" class="st7" width="9.5" height="9.5"/>
				<rect x="202.1" y="124.9" class="st7" width="9.5" height="9.5"/>
				<rect x="202.1" y="115.4" class="st5" width="9.5" height="9.5"/>
				<rect x="192.6" y="201.8" class="st6" width="9.5" height="9.5"/>
				<rect x="192.6" y="182.1" class="st5" width="9.5" height="9.5"/>
				<rect x="192.6" y="172.6" class="st7" width="9.5" height="9.5"/>
				<rect x="192.6" y="163" class="st7" width="9.5" height="9.5"/>
				<rect x="192.6" y="153.5" class="st5" width="9.5" height="9.5"/>
				<rect x="192.6" y="144" class="st7" width="9.5" height="9.5"/>
				<rect x="192.6" y="134.5" class="st7" width="9.5" height="9.5"/>
				<rect x="192.6" y="124.9" class="st7" width="9.5" height="9.5"/>
				<rect x="192.6" y="115.4" class="st5" width="9.5" height="9.5"/>
				<rect x="183.1" y="201.8" class="st5" width="9.5" height="9.5"/>
				<rect x="183.1" y="182.1" class="st5" width="9.5" height="9.5"/>
				<rect x="183.1" y="172.6" class="st5" width="9.5" height="9.5"/>
				<rect x="183.1" y="163" class="st5" width="9.5" height="9.5"/>
				<rect x="183.1" y="153.5" class="st5" width="9.5" height="9.5"/>
				<rect x="183.1" y="144" class="st5" width="9.5" height="9.5"/>
				<rect x="183.1" y="134.5" class="st5" width="9.5" height="9.5"/>
				<rect x="183.1" y="124.9" class="st5" width="9.5" height="9.5"/>
				<rect x="183.1" y="115.4" class="st5" width="9.5" height="9.5"/>
				<rect x="173.6" y="201.8" class="st5" width="9.5" height="9.5"/>
				<rect x="173.6" y="182.1" class="st5" width="9.5" height="9.5"/>
				<rect x="173.6" y="172.6" class="st5" width="9.5" height="9.5"/>
				<rect x="173.6" y="163" class="st5" width="9.5" height="9.5"/>
				<rect x="173.6" y="153.5" class="st5" width="9.5" height="9.5"/>
				<rect x="173.6" y="144" class="st5" width="9.5" height="9.5"/>
				<rect x="173.6" y="134.5" class="st5" width="9.5" height="9.5"/>
				<rect x="173.6" y="124.9" class="st5" width="9.5" height="9.5"/>
				<rect x="173.6" y="115.4" class="st5" width="9.5" height="9.5"/>
				<rect x="153.7" y="182.2" class="st5" width="9.6" height="9.6"/>
				<rect x="153.7" y="172.6" class="st6" width="9.6" height="9.6"/>
				<rect x="153.7" y="163" class="st6" width="9.6" height="9.6"/>
				<rect x="153.7" y="153.5" class="st5" width="9.6" height="9.6"/>
				<rect x="153.7" y="143.9" class="st6" width="9.6" height="9.6"/>
				<rect x="153.7" y="134.3" class="st6" width="9.6" height="9.6"/>
				<rect x="153.7" y="124.8" class="st6" width="9.6" height="9.6"/>
				<rect x="153.7" y="115.2" class="st5" width="9.6" height="9.6"/>
			</g>
			<g>
				<polygon class="st8" points="173.6,124.9 173.6,115.4 183.1,115.4 192.6,115.4 202.1,115.4 211.7,115.4 221.2,115.4 
					230.7,115.4 240.2,115.4 249.8,115.4 249.8,124.9 249.8,134.5 249.8,144 249.8,153.5 249.8,163 249.8,172.6 249.8,182.1 
					249.8,191.6 240.2,191.6 230.7,191.6 221.2,191.6 211.7,191.6 202.1,191.6 192.6,191.6 183.1,191.6 173.6,191.6 173.6,182.1 
					173.6,172.6 173.6,163 173.6,153.5 173.6,144 173.6,134.5 				"/>
				<polyline class="st8" points="173.6,182.1 183.1,182.1 192.6,182.1 202.1,182.1 211.7,182.1 221.2,182.1 230.7,182.1 
					240.2,182.1 249.8,182.1 				"/>
				<polyline class="st8" points="173.6,172.6 183.1,172.6 192.6,172.6 202.1,172.6 211.7,172.6 221.2,172.6 230.7,172.6 
					240.2,172.6 249.8,172.6 				"/>
				<polyline class="st8" points="173.6,163 183.1,163 192.6,163 202.1,163 211.7,163 221.2,163 230.7,163 240.2,163 249.8,163 				
					"/>
				<polyline class="st8" points="173.6,153.5 183.1,153.5 192.6,153.5 202.1,153.5 211.7,153.5 221.2,153.5 230.7,153.5 
					240.2,153.5 249.8,153.5 				"/>
				<polyline class="st8" points="173.6,144 183.1,144 192.6,144 202.1,144 211.7,144 221.2,144 230.7,144 240.2,144 249.8,144 				
					"/>
				<polyline class="st8" points="173.6,134.5 183.1,134.5 192.6,134.5 202.1,134.5 211.7,134.5 221.2,134.5 230.7,134.5 
					240.2,134.5 249.8,134.5 				"/>
				<polyline class="st8" points="173.6,124.9 183.1,124.9 192.6,124.9 202.1,124.9 211.7,124.9 221.2,124.9 230.7,124.9 
					240.2,124.9 249.8,124.9 				"/>
				<polyline class="st8" points="240.2,115.4 240.2,124.9 240.2,134.5 240.2,144 240.2,153.5 240.2,163 240.2,172.6 240.2,182.1 
					240.2,191.6 				"/>
				<polyline class="st8" points="230.7,115.4 230.7,124.9 230.7,134.5 230.7,144 230.7,153.5 230.7,163 230.7,172.6 230.7,182.1 
					230.7,191.6 				"/>
				<polyline class="st8" points="221.2,115.4 221.2,124.9 221.2,134.5 221.2,144 221.2,153.5 221.2,163 221.2,172.6 221.2,182.1 
					221.2,191.6 				"/>
				<polyline class="st8" points="211.7,115.4 211.7,124.9 211.7,134.5 211.7,144 211.7,153.5 211.7,163 211.7,172.6 211.7,182.1 
					211.7,191.6 				"/>
				<polyline class="st8" points="202.1,115.4 202.1,124.9 202.1,134.5 202.1,144 202.1,153.5 202.1,163 202.1,172.6 202.1,182.1 
					202.1,191.6 				"/>
				<polyline class="st8" points="192.6,115.4 192.6,124.9 192.6,134.5 192.6,144 192.6,153.5 192.6,163 192.6,172.6 192.6,182.1 
					192.6,191.6 				"/>
				<polyline class="st8" points="183.1,115.4 183.1,124.9 183.1,134.5 183.1,144 183.1,153.5 183.1,163 183.1,172.6 183.1,182.1 
					183.1,191.6 				"/>
				<polygon class="st8" points="183.1,211.3 173.6,211.3 173.6,201.8 183.1,201.8 192.6,201.8 202.1,201.8 211.7,201.8 
					221.2,201.8 230.7,201.8 240.2,201.8 249.8,201.8 249.8,211.3 240.2,211.3 230.7,211.3 221.2,211.3 211.7,211.3 202.1,211.3 
					192.6,211.3 				"/>
				<line class="st8" x1="240.2" y1="201.8" x2="240.2" y2="211.3"/>
				<line class="st8" x1="230.7" y1="201.8" x2="230.7" y2="211.3"/>
				<line class="st8" x1="221.2" y1="201.8" x2="221.2" y2="211.3"/>
				<line class="st8" x1="211.7" y1="201.8" x2="211.7" y2="211.3"/>
				<line class="st8" x1="202.1" y1="201.8" x2="202.1" y2="211.3"/>
				<line class="st8" x1="192.6" y1="201.8" x2="192.6" y2="211.3"/>
				<line class="st8" x1="183.1" y1="201.8" x2="183.1" y2="211.3"/>
				<polygon class="st8" points="163.3,124.8 163.3,115.2 153.7,115.2 153.7,124.8 153.7,134.3 153.7,143.9 153.7,153.5 153.7,163 
					153.7,172.6 153.7,182.2 153.7,191.7 163.3,191.7 163.3,182.2 163.3,172.6 163.3,163 163.3,153.5 163.3,143.9 163.3,134.3 				
					"/>
				<line class="st8" x1="163.3" y1="182.2" x2="153.7" y2="182.2"/>
				<line class="st8" x1="163.3" y1="172.6" x2="153.7" y2="172.6"/>
				<line class="st8" x1="163.3" y1="163" x2="153.7" y2="163"/>
				<line class="st8" x1="163.3" y1="153.5" x2="153.7" y2="153.5"/>
				<line class="st8" x1="163.3" y1="143.9" x2="153.7" y2="143.9"/>
				<line class="st8" x1="163.3" y1="134.3" x2="153.7" y2="134.3"/>
				<line class="st8" x1="163.3" y1="124.8" x2="153.7" y2="124.8"/>
			</g>
		</g>
	</g>
</g>
<g>
	<g>
		<g id="XMLID_5_">
			<g>
				<rect x="367.3" y="201.8" class="st5" width="9.5" height="9.5"/>
				<rect x="367.3" y="182.1" class="st5" width="9.5" height="9.5"/>
				<rect x="367.3" y="172.6" class="st5" width="9.5" height="9.5"/>
				<rect x="367.3" y="163" class="st5" width="9.5" height="9.5"/>
				<rect x="367.3" y="153.5" class="st5" width="9.5" height="9.5"/>
				<rect x="367.3" y="144" class="st5" width="9.5" height="9.5"/>
				<rect x="367.3" y="134.5" class="st5" width="9.5" height="9.5"/>
				<rect x="367.3" y="124.9" class="st5" width="9.5" height="9.5"/>
				<rect x="367.3" y="115.4" class="st5" width="9.5" height="9.5"/>
				<rect x="357.8" y="201.8" class="st6" width="9.5" height="9.5"/>
				<rect x="357.8" y="182.1" class="st5" width="9.5" height="9.5"/>
				<rect x="357.8" y="172.6" class="st7" width="9.5" height="9.5"/>
				<rect x="357.8" y="163" class="st7" width="9.5" height="9.5"/>
				<rect x="357.8" y="153.5" class="st7" width="9.5" height="9.5"/>
				<rect x="357.8" y="144" class="st7" width="9.5" height="9.5"/>
				<rect x="357.8" y="134.5" class="st7" width="9.5" height="9.5"/>
				<rect x="357.8" y="124.9" class="st7" width="9.5" height="9.5"/>
				<rect x="357.8" y="115.4" class="st5" width="9.5" height="9.5"/>
				<rect x="348.3" y="201.8" class="st6" width="9.5" height="9.5"/>
				<rect x="348.3" y="182.1" class="st5" width="9.5" height="9.5"/>
				<rect x="348.3" y="172.6" class="st7" width="9.5" height="9.5"/>
				<rect x="348.3" y="163" class="st7" width="9.5" height="9.5"/>
				<rect x="348.3" y="153.5" class="st7" width="9.5" height="9.5"/>
				<rect x="348.3" y="144" class="st7" width="9.5" height="9.5"/>
				<rect x="348.3" y="134.5" class="st7" width="9.5" height="9.5"/>
				<rect x="348.3" y="124.9" class="st7" width="9.5" height="9.5"/>
				<rect x="348.3" y="115.4" class="st5" width="9.5" height="9.5"/>
				<rect x="338.7" y="201.8" class="st5" width="9.5" height="9.5"/>
				<rect x="338.7" y="182.1" class="st5" width="9.5" height="9.5"/>
				<rect x="338.7" y="172.6" class="st5" width="9.5" height="9.5"/>
				<rect x="338.7" y="163" class="st5" width="9.5" height="9.5"/>
				<rect x="338.7" y="153.5" class="st5" width="9.5" height="9.5"/>
				<rect x="338.7" y="144" class="st5" width="9.5" height="9.5"/>
				<rect x="338.7" y="134.5" class="st5" width="9.5" height="9.5"/>
				<rect x="338.7" y="124.9" class="st5" width="9.5" height="9.5"/>
				<rect x="338.7" y="115.4" class="st5" width="9.5" height="9.5"/>
				<rect x="329.2" y="201.8" class="st6" width="9.5" height="9.5"/>
				<rect x="329.2" y="182.1" class="st5" width="9.5" height="9.5"/>
				<rect x="329.2" y="172.6" class="st7" width="9.5" height="9.5"/>
				<rect x="329.2" y="163" class="st7" width="9.5" height="9.5"/>
				<rect x="329.2" y="153.5" class="st7" width="9.5" height="9.5"/>
				<rect x="329.2" y="144" class="st7" width="9.5" height="9.5"/>
				<rect x="329.2" y="134.5" class="st7" width="9.5" height="9.5"/>
				<rect x="329.2" y="124.9" class="st7" width="9.5" height="9.5"/>
				<rect x="329.2" y="115.4" class="st5" width="9.5" height="9.5"/>
				<rect x="319.7" y="201.8" class="st6" width="9.5" height="9.5"/>
				<rect x="319.7" y="182.1" class="st5" width="9.5" height="9.5"/>
				<rect x="319.7" y="172.6" class="st7" width="9.5" height="9.5"/>
				<rect x="319.7" y="163" class="st7" width="9.5" height="9.5"/>
				<rect x="319.7" y="153.5" class="st7" width="9.5" height="9.5"/>
				<rect x="319.7" y="144" class="st7" width="9.5" height="9.5"/>
				<rect x="319.7" y="134.5" class="st7" width="9.5" height="9.5"/>
				<rect x="319.7" y="124.9" class="st7" width="9.5" height="9.5"/>
				<rect x="319.7" y="115.4" class="st5" width="9.5" height="9.5"/>
				<rect x="310.1" y="201.8" class="st5" width="9.5" height="9.5"/>
				<rect x="310.1" y="182.1" class="st5" width="9.5" height="9.5"/>
				<rect x="310.1" y="172.6" class="st5" width="9.5" height="9.5"/>
				<rect x="310.1" y="163" class="st5" width="9.5" height="9.5"/>
				<rect x="310.1" y="153.5" class="st5" width="9.5" height="9.5"/>
				<rect x="310.1" y="144" class="st5" width="9.5" height="9.5"/>
				<rect x="310.1" y="134.5" class="st5" width="9.5" height="9.5"/>
				<rect x="310.1" y="124.9" class="st5" width="9.5" height="9.5"/>
				<rect x="310.1" y="115.4" class="st5" width="9.5" height="9.5"/>
				<rect x="300.6" y="201.8" class="st5" width="9.5" height="9.5"/>
				<rect x="300.6" y="182.1" class="st5" width="9.5" height="9.5"/>
				<rect x="300.6" y="172.6" class="st5" width="9.5" height="9.5"/>
				<rect x="300.6" y="163" class="st5" width="9.5" height="9.5"/>
				<rect x="300.6" y="153.5" class="st5" width="9.5" height="9.5"/>
				<rect x="300.6" y="144" class="st5" width="9.5" height="9.5"/>
				<rect x="300.6" y="134.5" class="st5" width="9.5" height="9.5"/>
				<rect x="300.6" y="124.9" class="st5" width="9.5" height="9.5"/>
				<rect x="300.6" y="115.4" class="st5" width="9.5" height="9.5"/>
				<rect x="280.8" y="182.2" class="st5" width="9.6" height="9.6"/>
				<rect x="280.8" y="172.6" class="st6" width="9.6" height="9.6"/>
				<rect x="280.8" y="163" class="st6" width="9.6" height="9.6"/>
				<rect x="280.8" y="153.5" class="st6" width="9.6" height="9.6"/>
				<rect x="280.8" y="143.9" class="st6" width="9.6" height="9.6"/>
				<rect x="280.8" y="134.3" class="st6" width="9.6" height="9.6"/>
				<rect x="280.8" y="124.8" class="st6" width="9.6" height="9.6"/>
				<rect x="280.8" y="115.2" class="st5" width="9.6" height="9.6"/>
			</g>
			<g>
				<polygon class="st8" points="300.6,124.9 300.6,115.4 310.1,115.4 319.7,115.4 329.2,115.4 338.7,115.4 348.3,115.4 
					357.8,115.4 367.3,115.4 376.8,115.4 376.8,124.9 376.8,134.5 376.8,144 376.8,153.5 376.8,163 376.8,172.6 376.8,182.1 
					376.8,191.6 367.3,191.6 357.8,191.6 348.3,191.6 338.7,191.6 329.2,191.6 319.7,191.6 310.1,191.6 300.6,191.6 300.6,182.1 
					300.6,172.6 300.6,163 300.6,153.5 300.6,144 300.6,134.5 				"/>
				<polyline class="st8" points="300.6,182.1 310.1,182.1 319.7,182.1 329.2,182.1 338.7,182.1 348.3,182.1 357.8,182.1 
					367.3,182.1 376.8,182.1 				"/>
				<polyline class="st8" points="300.6,172.6 310.1,172.6 319.7,172.6 329.2,172.6 338.7,172.6 348.3,172.6 357.8,172.6 
					367.3,172.6 376.8,172.6 				"/>
				<polyline class="st8" points="300.6,163 310.1,163 319.7,163 329.2,163 338.7,163 348.3,163 357.8,163 367.3,163 376.8,163 				
					"/>
				<polyline class="st8" points="300.6,153.5 310.1,153.5 319.7,153.5 329.2,153.5 338.7,153.5 348.3,153.5 357.8,153.5 
					367.3,153.5 376.8,153.5 				"/>
				<polyline class="st8" points="300.6,144 310.1,144 319.7,144 329.2,144 338.7,144 348.3,144 357.8,144 367.3,144 376.8,144 				
					"/>
				<polyline class="st8" points="300.6,134.5 310.1,134.5 319.7,134.5 329.2,134.5 338.7,134.5 348.3,134.5 357.8,134.5 
					367.3,134.5 376.8,134.5 				"/>
				<polyline class="st8" points="300.6,124.9 310.1,124.9 319.7,124.9 329.2,124.9 338.7,124.9 348.3,124.9 357.8,124.9 
					367.3,124.9 376.8,124.9 				"/>
				<polyline class="st8" points="367.3,115.4 367.3,124.9 367.3,134.5 367.3,144 367.3,153.5 367.3,163 367.3,172.6 367.3,182.1 
					367.3,191.6 				"/>
				<polyline class="st8" points="357.8,115.4 357.8,124.9 357.8,134.5 357.8,144 357.8,153.5 357.8,163 357.8,172.6 357.8,182.1 
					357.8,191.6 				"/>
				<polyline class="st8" points="348.3,115.4 348.3,124.9 348.3,134.5 348.3,144 348.3,153.5 348.3,163 348.3,172.6 348.3,182.1 
					348.3,191.6 				"/>
				<polyline class="st8" points="338.7,115.4 338.7,124.9 338.7,134.5 338.7,144 338.7,153.5 338.7,163 338.7,172.6 338.7,182.1 
					338.7,191.6 				"/>
				<polyline class="st8" points="329.2,115.4 329.2,124.9 329.2,134.5 329.2,144 329.2,153.5 329.2,163 329.2,172.6 329.2,182.1 
					329.2,191.6 				"/>
				<polyline class="st8" points="319.7,115.4 319.7,124.9 319.7,134.5 319.7,144 319.7,153.5 319.7,163 319.7,172.6 319.7,182.1 
					319.7,191.6 				"/>
				<polyline class="st8" points="310.1,115.4 310.1,124.9 310.1,134.5 310.1,144 310.1,153.5 310.1,163 310.1,172.6 310.1,182.1 
					310.1,191.6 				"/>
				<polygon class="st8" points="310.1,211.3 300.6,211.3 300.6,201.8 310.1,201.8 319.7,201.8 329.2,201.8 338.7,201.8 
					348.3,201.8 357.8,201.8 367.3,201.8 376.8,201.8 376.8,211.3 367.3,211.3 357.8,211.3 348.3,211.3 338.7,211.3 329.2,211.3 
					319.7,211.3 				"/>
				<line class="st8" x1="367.3" y1="201.8" x2="367.3" y2="211.3"/>
				<line class="st8" x1="357.8" y1="201.8" x2="357.8" y2="211.3"/>
				<line class="st8" x1="348.3" y1="201.8" x2="348.3" y2="211.3"/>
				<line class="st8" x1="338.7" y1="201.8" x2="338.7" y2="211.3"/>
				<line class="st8" x1="329.2" y1="201.8" x2="329.2" y2="211.3"/>
				<line class="st8" x1="319.7" y1="201.8" x2="319.7" y2="211.3"/>
				<line class="st8" x1="310.1" y1="201.8" x2="310.1" y2="211.3"/>
				<polygon class="st8" points="290.3,124.8 290.3,115.2 280.8,115.2 280.8,124.8 280.8,134.3 280.8,143.9 280.8,153.5 280.8,163 
					280.8,172.6 280.8,182.2 280.8,191.7 290.3,191.7 290.3,182.2 290.3,172.6 290.3,163 290.3,153.5 290.3,143.9 290.3,134.3 				
					"/>
				<line class="st8" x1="290.3" y1="182.2" x2="280.8" y2="182.2"/>
				<line class="st8" x1="290.3" y1="172.6" x2="280.8" y2="172.6"/>
				<line class="st8" x1="290.3" y1="163" x2="280.8" y2="163"/>
				<line class="st8" x1="290.3" y1="153.5" x2="280.8" y2="153.5"/>
				<line class="st8" x1="290.3" y1="143.9" x2="280.8" y2="143.9"/>
				<line class="st8" x1="290.3" y1="134.3" x2="280.8" y2="134.3"/>
				<line class="st8" x1="290.3" y1="124.8" x2="280.8" y2="124.8"/>
			</g>
		</g>
	</g>
	<g>
		<g>
			<polyline class="st9" points="350.6,215.2 350.6,216.2 349.6,216.2 			"/>
			<line class="st10" x1="348.6" y1="216.2" x2="336.8" y2="216.2"/>
			<polyline class="st9" points="336.3,216.2 335.3,216.2 335.3,215.2 			"/>
			<line class="st11" x1="335.3" y1="214.2" x2="335.3" y2="111.4"/>
			<polyline class="st9" points="335.3,110.9 335.3,109.9 336.3,109.9 			"/>
			<line class="st10" x1="337.4" y1="109.9" x2="349.1" y2="109.9"/>
			<polyline class="st9" points="349.6,109.9 350.6,109.9 350.6,110.9 			"/>
			<line class="st11" x1="350.6" y1="111.9" x2="350.6" y2="214.7"/>
		</g>
	</g>
	<g>
		<g>
			<polyline class="st9" points="381.4,150.8 382.4,150.8 382.4,151.8 			"/>
			<line class="st10" x1="382.4" y1="152.8" x2="382.4" y2="164.6"/>
			<polyline class="st9" points="382.4,165.1 382.4,166.1 381.4,166.1 			"/>
			<line class="st11" x1="380.3" y1="166.1" x2="277.6" y2="166.1"/>
			<polyline class="st9" points="277.1,166.1 276.1,166.1 276.1,165.1 			"/>
			<line class="st10" x1="276.1" y1="164.1" x2="276.1" y2="152.3"/>
			<polyline class="st9" points="276.1,151.8 276.1,150.8 277.1,150.8 			"/>
			<line class="st11" x1="278.1" y1="150.8" x2="380.9" y2="150.8"/>
		</g>
	</g>
</g>
<g>
	<rect x="539.6" y="127.4" class="st12" width="38.5" height="62.1"/>
	<line class="st12" x1="539.6" y1="179.2" x2="578.1" y2="179.2"/>
	<line class="st12" x1="539.6" y1="168.8" x2="578.1" y2="168.8"/>
	<line class="st12" x1="539.6" y1="158.5" x2="578.1" y2="158.5"/>
	<line class="st12" x1="539.6" y1="148.1" x2="578.1" y2="148.1"/>
	<line class="st12" x1="539.6" y1="137.8" x2="578.1" y2="137.8"/>
	<line class="st12" x1="568.5" y1="127.4" x2="568.5" y2="189.5"/>
	<line class="st12" x1="558.9" y1="127.4" x2="558.9" y2="189.5"/>
	<line class="st12" x1="549.3" y1="127.4" x2="549.3" y2="189.5"/>
</g>
<text transform="matrix(1 0 0 1 105.4644 235.8745)" class="st13 st14">(a) Pruning with VIB masks</text>
<text transform="matrix(1 0 0 1 311.6122 234.1222)"><tspan x="0" y="0" class="st13 st14">(b) Post-Prune </tspan><tspan x="-8.7" y="9.6" class="st13 st14">Dimension Adaption</tspan></text>
<text transform="matrix(1 0 0 1 432.3739 234.1224)"><tspan x="0" y="0" class="st13 st14">(c) Post-Prune </tspan><tspan x="0.4" y="9.6" class="st13 st14">Weight Update</tspan></text>
<g>
	<g>
		<line class="st15" x1="133.2" y1="158.5" x2="147.1" y2="158.5"/>
		<g>
			<polygon points="144.1,161 146.6,158.5 144.1,155.9 146.2,155.9 148.8,158.5 146.2,161 			"/>
		</g>
	</g>
</g>
<g>
	<g>
		<line class="st15" x1="256.1" y1="158.5" x2="270" y2="158.5"/>
		<g>
			<polygon points="267,161 269.6,158.5 267,155.9 269.2,155.9 271.7,158.5 269.2,161 			"/>
		</g>
	</g>
</g>
<g>
	<g>
		<line class="st15" x1="393.9" y1="158.5" x2="407.7" y2="158.5"/>
		<g>
			<polygon points="404.8,161 407.3,158.5 404.8,155.9 406.9,155.9 409.5,158.5 406.9,161 			"/>
		</g>
	</g>
</g>
<g>
	<g>
		<line class="st15" x1="503.6" y1="158.5" x2="517.5" y2="158.5"/>
		<g>
			<polygon points="514.5,161 517,158.5 514.5,155.9 516.6,155.9 519.2,158.5 516.6,161 			"/>
		</g>
	</g>
</g>
<text transform="matrix(1 0 0 1 520.4326 233.1514)"><tspan x="0" y="0" class="st13 st14">(d) Final Compressed</tspan><tspan x="24" y="9.6" class="st13 st14">Weights</tspan></text>
<text transform="matrix(0 -1 1 0 24.4785 164.5063)" class="st16 st17">m­</text>
<text transform="matrix(0 -0.583 0.583 0 27.4755 156.5039)" class="st16 st17">token</text>
<text transform="matrix(1 0 0 1 80.5231 223.679)" class="st16 st18">m</text>
<text transform="matrix(0.583 0 0 0.583 89.4147 227.009)" class="st16 st18">dim</text>
<rect x="19.1" y="246.4" class="st4" width="9.8" height="9.8"/>
<rect x="221.2" y="246.4" class="st19" width="9.8" height="9.8"/>
<rect x="123.4" y="246.4" class="st1" width="9.8" height="9.8"/>
<text transform="matrix(1 0 0 1 32.1944 254.7924)" class="st13 st14">Frozen Model Weights</text>
<text transform="matrix(1 0 0 1 136.7737 254.7923)" class="st13 st14">Trainable VIB masks</text>
<text transform="matrix(1 0 0 1 234.0806 254.7925)" class="st13 st14">Pruned Weights</text>
</svg>
